v -0.4429427981376648 0.0625 0.25
v -0.4375 0.05868303403258324 0.25
v -0.4375 0.0625 0.23456025123596191
v -0.4495205581188202 0.0625 0.28125
v -0.4375 0.05512433126568794 0.28125
v -0.4375 0.0625 0.2910003066062927
v -0.4375 0.06411518901586533 0.25
v -0.4375 0.06577756255865097 0.28125
v -0.43156564235687256 0.0625 0.25
v -0.4305815100669861 0.0625 0.28125
v -0.41581645607948303 0.3125 -0.25
v -0.40625 0.30351462960243225 -0.25
v -0.40625 0.3125 -0.26707723736763
v -0.41835400462150574 0.3125 -0.21875
v -0.40625 0.30199259519577026 -0.21875
v -0.40625 0.3125 -0.19897089898586273
v -0.40625 0.3157041370868683 -0.25
v -0.40625 0.31516650319099426 -0.21875
v -0.41258740425109863 0.4375 -0.25
v -0.40625 0.4214654862880707 -0.25
v -0.40625 0.4375 -0.25805115699768066
v -0.4165104925632477 0.4375 -0.21875
v -0.40625 0.42368993163108826 -0.21875
v -0.40625 0.4375 -0.19029748439788818
v -0.40625 0.4401659071445465 -0.25
v -0.40625 0.4421061873435974 -0.21875
v -0.375 0.3052320182323456 -0.25
v -0.375 0.3125 -0.2611859440803528
v -0.375 0.29575762152671814 -0.21875
v -0.39898622035980225 0.3125 -0.1875
v -0.375 0.299919068813324 -0.1875
v -0.375 0.3125 -0.16450759768486023
v -0.375 0.31609299778938293 -0.25
v -0.375 0.3206176459789276 -0.21875
v -0.375 0.3171641230583191 -0.1875
v -0.3903835415840149 0.40625 -0.21875
v -0.375 0.40411368012428284 -0.21875
v -0.375 0.40625 -0.2487225979566574
v -0.375 0.40625 -0.20390795171260834
v -0.375 0.41606003046035767 -0.25
v -0.375 0.4375 -0.25127336382865906
v -0.40367576479911804 0.4375 -0.1875
v -0.375 0.4235233664512634 -0.1875
v -0.375 0.4375 -0.17356915771961212
v -0.375 0.43809792399406433 -0.25
v -0.375 0.44578635692596436 -0.21875
v -0.375 0.44255417585372925 -0.1875
v -0.34400618076324463 -0.4375 -0.375
v -0.34375 -0.4376995861530304 -0.375
v -0.34375 -0.4375 -0.37644121050834656
v -0.34375 -0.4375 -0.3743606507778168
v -0.34375 -0.4373888671398163 -0.375
v -0.36691707372665405 0.3125 -0.25
v -0.3495887815952301 0.3125 -0.21875
v -0.34375 0.31090545654296875 -0.1875
v -0.34375 0.3125 -0.1952591985464096
v -0.34375 0.3125 -0.17595334351062775
v -0.34375 0.31331074237823486 -0.1875
v -0.35549384355545044 0.40625 -0.21875
v -0.374268501996994 0.4375 -0.25
v -0.3560104966163635 0.4375 -0.21875
v -0.34375 0.42636966705322266 -0.1875
v -0.34375 0.4375 -0.19533097743988037
v -0.34375 0.4375 -0.17136240005493164
v -0.34375 0.4393188953399658 -0.1875
v -0.3125 -0.4402584433555603 -0.375
v -0.3125 -0.4375 -0.38578054308891296
v -0.3125 -0.4375 -0.3621132969856262
v -0.3125 -0.43650975823402405 -0.375
v -0.34090572595596313 0.3125 -0.1875
v -0.33902233839035034 0.4375 -0.1875
v -0.28125 -0.4408361613750458 -0.375
v -0.28125 -0.4375 -0.38034728169441223
v -0.2859286665916443 -0.4375 -0.34375
v -0.28125 -0.438114196062088 -0.34375
v -0.28125 -0.4375 -0.340922087430954
v -0.28125 -0.4362919330596924 -0.375
v -0.28125 -0.43725302815437317 -0.34375
v -0.3093196749687195 0.0625 -0.4375
v -0.28125 0.05372637137770653 -0.4375
v -0.28125 0.0625 -0.45102059841156006
v -0.28458768129348755 0.0625 -0.40625
v -0.28125 0.06077245622873306 -0.40625
v -0.28125 0.0625 -0.4047914445400238
v -0.28125 0.06665477156639099 -0.4375
v -0.28125 0.06325308233499527 -0.40625
v -0.25 -0.45130181312561035 -0.375
v -0.25 -0.4375 -0.39410004019737244
v -0.25 -0.45455312728881836 -0.34375
v -0.26982641220092773 -0.4375 -0.3125
v -0.25 -0.4481458067893982 -0.3125
v -0.25507792830467224 -0.4375 -0.28125
v -0.25 -0.440243661403656 -0.28125
v -0.25 -0.4375 -0.2772468626499176
v -0.25 -0.4315245747566223 -0.375
v -0.25 -0.4301633834838867 -0.34375
v -0.25 -0.4335564970970154 -0.3125
v -0.25 -0.43616899847984314 -0.28125
v -0.261379212141037 0.0625 -0.4375
v -0.27715200185775757 0.0625 -0.40625
v -0.21875 -0.44393107295036316 -0.375
v -0.21875 -0.4375 -0.38447216153144836
v -0.21875 -0.4572630524635315 -0.34375
v -0.21875 -0.45736411213874817 -0.3125
v -0.21875 -0.4543967545032501 -0.28125
v -0.22041475772857666 -0.4375 -0.25
v -0.21875 -0.4384520947933197 -0.25
v -0.21875 -0.4375 -0.2478870451450348
v -0.21875 -0.4346712529659271 -0.375
v -0.21875 -0.42714565992355347 -0.34375
v -0.21875 -0.42938467860221863 -0.3125
v -0.21875 -0.43050670623779297 -0.28125
v -0.21875 -0.43697184324264526 -0.25
v -0.22321172058582306 -0.34375 -0.3125
v -0.21875 -0.3440423309803009 -0.3125
v -0.21875 -0.34375 -0.31426307559013367
v -0.21875 -0.34375 -0.29977795481681824
v -0.2223779261112213 -0.3125 -0.34375
v -0.21875 -0.31874796748161316 -0.34375
v -0.21875 -0.3125 -0.35553818941116333
v -0.22322668135166168 -0.3125 -0.3125
v -0.21875 -0.3125 -0.28999656438827515
v -0.21875 -0.31073054671287537 -0.34375
v -0.21875 -0.31147247552871704 -0.3125
v -0.2070665955543518 -0.4375 -0.375
v -0.1875 -0.45252418518066406 -0.34375
v -0.1875 -0.4375 -0.363136887550354
v -0.1875 -0.45990681648254395 -0.3125
v -0.1875 -0.4612540006637573 -0.28125
v -0.1875 -0.44851967692375183 -0.25
v -0.1875 -0.4375 -0.23049984872341156
v -0.1875 -0.4293070137500763 -0.34375
v -0.1875 -0.42682263255119324 -0.3125
v -0.1875 -0.42656293511390686 -0.28125
v -0.1875 -0.4319196939468384 -0.25
v -0.21430851519107819 -0.34375 -0.3125
v -0.20166409015655518 -0.3125 -0.375
v -0.1875 -0.31700071692466736 -0.375
v -0.1875 -0.3125 -0.38803014159202576
v -0.1875 -0.32324719429016113 -0.34375
v -0.1875 -0.33063700795173645 -0.3125
v -0.1875 -0.3125 -0.28621938824653625
v -0.1875 -0.3102899491786957 -0.375
v -0.1875 -0.309013307094574 -0.34375
v -0.1875 -0.3098715841770172 -0.3125
v -0.15625 -0.4500754177570343 -0.34375
v -0.15625 -0.4375 -0.36209413409233093
v -0.15625 -0.4601261019706726 -0.3125
v -0.15625 -0.46234485507011414 -0.28125
v -0.15625 -0.4498084783554077 -0.25
v -0.15625 -0.4375 -0.22818194329738617
v -0.15625 -0.4299324154853821 -0.34375
v -0.15625 -0.42379868030548096 -0.3125
v -0.15625 -0.423972487449646 -0.28125
v -0.15625 -0.43022558093070984 -0.25
v -0.15625 -0.3164336085319519 -0.375
v -0.15625 -0.3125 -0.3802766799926758
v -0.15625 -0.32156291604042053 -0.34375
v -0.17226584255695343 -0.3125 -0.3125
v -0.15625 -0.3125 -0.3287857174873352
v -0.15625 -0.3113018274307251 -0.375
v -0.15625 -0.3099604547023773 -0.34375
v -0.15805645287036896 -0.125 -0.3125
v -0.15625 -0.12658753991127014 -0.3125
v -0.15625 -0.125 -0.3318057060241699
v -0.15625 -0.125 -0.31110551953315735
v -0.15625 -0.12408242374658585 -0.3125
v -0.1430252194404602 -0.4375 -0.40625
v -0.125 -0.4432307779788971 -0.40625
v -0.125 -0.4375 -0.4206016957759857
v -0.1314385086297989 -0.4375 -0.375
v -0.125 -0.44012242555618286 -0.375
v -0.125 -0.4450394809246063 -0.34375
v -0.125 -0.45694828033447266 -0.3125
v -0.125 -0.46005985140800476 -0.28125
v -0.125 -0.449825644493103 -0.25
v -0.12664514780044556 -0.4375 -0.21875
v -0.125 -0.4378633201122284 -0.21875
v -0.125 -0.4375 -0.21758343279361725
v -0.125 -0.4338012933731079 -0.40625
v -0.125 -0.4361202120780945 -0.375
v -0.125 -0.4334219992160797 -0.34375
v -0.125 -0.42202693223953247 -0.3125
v -0.125 -0.4180770218372345 -0.28125
v -0.125 -0.42679640650749207 -0.25
v -0.125 -0.4372768700122833 -0.21875
v -0.15262740850448608 -0.3125 -0.375
v -0.1482631117105484 -0.3125 -0.34375
v -0.12856587767601013 -0.1875 -0.40625
v -0.125 -0.1897321194410324 -0.40625
v -0.125 -0.1875 -0.416239470243454
v -0.14225631952285767 -0.1875 -0.375
v -0.125 -0.1937221735715866 -0.375
v -0.125 -0.1875 -0.3631160259246826
v -0.125 -0.18473319709300995 -0.40625
v -0.125 -0.16554220020771027 -0.375
v -0.15465231239795685 -0.125 -0.3125
v -0.09375 -0.44814571738243103 -0.40625
v -0.09375 -0.4375 -0.42770227789878845
v -0.09375 -0.44727712869644165 -0.375
v -0.09375 -0.44822487235069275 -0.34375
v -0.09375 -0.4541165828704834 -0.3125
v -0.09375 -0.45512133836746216 -0.28125
v -0.09375 -0.442709356546402 -0.25
v -0.09375 -0.43777477741241455 -0.21875
v -0.0966925323009491 -0.4375 -0.1875
v -0.09375 -0.43866652250289917 -0.1875
v -0.10127752274274826 -0.4375 -0.15625
v -0.09375 -0.4410168528556824 -0.15625
v -0.09920556098222733 -0.4375 -0.125
v -0.09375 -0.4392111599445343 -0.125
v -0.09375 -0.4375 -0.12304386496543884
v -0.09375 -0.43290650844573975 -0.40625
v -0.09375 -0.43307730555534363 -0.375
v -0.09375 -0.4308880567550659 -0.34375
v -0.09375 -0.42443612217903137 -0.3125
v -0.09375 -0.4190189242362976 -0.28125
v -0.09375 -0.43092674016952515 -0.25
v -0.09375 -0.4372645914554596 -0.21875
v -0.09375 -0.4369172751903534 -0.1875
v -0.09375 -0.43599560856819153 -0.15625
v -0.09375 -0.4363616406917572 -0.125
v -0.12047227472066879 -0.1875 -0.40625
v -0.11417971551418304 -0.1875 -0.375
v -0.0625 -0.46125277876853943 -0.40625
v -0.0625 -0.4375 -0.435355007648468
v -0.0625 -0.46211379766464233 -0.375
v -0.0625 -0.45901307463645935 -0.34375
v -0.0625 -0.4656260311603546 -0.3125
v -0.0625 -0.45943719148635864 -0.28125
v -0.0625 -0.4402390718460083 -0.25
v -0.09182986617088318 -0.4375 -0.21875
v -0.0625 -0.4375 -0.2370484322309494
v -0.08841466158628464 -0.4375 -0.1875
v -0.08077618479728699 -0.4375 -0.15625
v -0.08980045467615128 -0.4375 -0.125
v -0.0625 -0.42960813641548157 -0.40625
v -0.0625 -0.42503565549850464 -0.375
v -0.0625 -0.42585915327072144 -0.34375
v -0.0625 -0.42650046944618225 -0.3125
v -0.0625 -0.4188898205757141 -0.28125
v -0.0625 -0.43230578303337097 -0.25
v -0.06803389638662338 -0.34375 -0.28125
v -0.0625 -0.3489159047603607 -0.28125
v -0.0625 -0.34375 -0.28374549746513367
v -0.08619207888841629 -0.34375 -0.25
v -0.0625 -0.36421826481819153 -0.25
v -0.0625 -0.34375 -0.2324523627758026
v -0.0625 -0.33967703580856323 -0.28125
v -0.06402701139450073 -0.3125 -0.25
v -0.0625 -0.3125 -0.2511952817440033
v -0.0625 -0.3125 -0.24801404774188995
v -0.0625 -0.3117733597755432 -0.25
v -0.03125 -0.4585263729095459 -0.40625
v -0.03125 -0.4375 -0.4267289340496063
v -0.03125 -0.4624946415424347 -0.375
v -0.03125 -0.4550449848175049 -0.34375
v -0.03125 -0.45942649245262146 -0.3125
v -0.03125 -0.45319172739982605 -0.28125
v -0.05143201723694801 -0.4375 -0.25
v -0.03125 -0.4375 -0.2576965391635895
v -0.03125 -0.42981502413749695 -0.40625
v -0.03125 -0.42261749505996704 -0.375
v -0.03125 -0.43050435185432434 -0.34375
v -0.03125 -0.4301959276199341 -0.3125
v -0.03125 -0.4257139265537262 -0.28125
v -0.043797045946121216 -0.375 -0.25
v -0.03125 -0.37741819024086 -0.25
v -0.03125 -0.375 -0.2519460916519165
v -0.033893730491399765 -0.375 -0.21875
v -0.03125 -0.37678420543670654 -0.21875
v -0.03125 -0.375 -0.21684135496616364
v -0.045792240649461746 -0.34375 -0.28125
v -0.03125 -0.34375 -0.26793283224105835
v -0.03125 -0.36809176206588745 -0.21875
v -0.03125 -0.34375 -0.24079851806163788
v -0.061279840767383575 -0.3125 -0.25
v -0.03125 -0.33899518847465515 -0.25
v 0.0 -0.4579024314880371 -0.40625
v 0.0 -0.4375 -0.42509177327156067
v 0.0 -0.4634714722633362 -0.375
v 0.0 -0.4592714309692383 -0.34375
v 0.0 -0.45948126912117004 -0.3125
v 0.0 -0.451019287109375 -0.28125
v 0.0 -0.4375 -0.25963014364242554
v 0.0 -0.4272991716861725 -0.40625
v 0.0 -0.42028501629829407 -0.375
v 0.0 -0.428211510181427 -0.34375
v 0.0 -0.42889153957366943 -0.3125
v 0.0 -0.42942482233047485 -0.28125
v -0.026701321825385094 -0.375 -0.25
v 0.0 -0.37628480792045593 -0.21875
v 0.0 -0.375 -0.2217942178249359
v 0.0 -0.375 -0.21759936213493347
v -0.011086978949606419 -0.34375 -0.25
v 0.0 -0.36755016446113586 -0.21875
v 0.03125 -0.4513677656650543 -0.40625
v 0.03125 -0.4375 -0.4170469343662262
v 0.03125 -0.46424391865730286 -0.375
v 0.03125 -0.46702373027801514 -0.34375
v 0.03125 -0.467617392539978 -0.3125
v 0.03125 -0.459867388010025 -0.28125
v 0.017940128222107887 -0.4375 -0.25
v 0.03125 -0.44225218892097473 -0.25
v 0.03125 -0.4375 -0.23789919912815094
v 0.03125 -0.4305042028427124 -0.40625
v 0.03125 -0.4194554388523102 -0.375
v 0.03125 -0.4232770502567291 -0.34375
v 0.03125 -0.42462196946144104 -0.3125
v 0.03125 -0.4264204800128937 -0.28125
v 0.03125 -0.43356919288635254 -0.25
v 0.0029773174319416285 -0.375 -0.21875
v 0.027110261842608452 -0.34375 -0.375
v 0.03125 -0.34413474798202515 -0.375
v 0.03125 -0.34375 -0.3755965530872345
v 0.03125 -0.34375 -0.3735903203487396
v 0.027909094467759132 -0.34375 -0.28125
v 0.03125 -0.34391528367996216 -0.28125
v 0.03125 -0.34375 -0.2821323573589325
v 0.010856802575290203 -0.34375 -0.25
v 0.03125 -0.3465728461742401 -0.25
v 0.03125 -0.34375 -0.23252186179161072
v 0.002403757767751813 -0.3125 -0.375
v 0.03125 -0.3125 -0.38609248399734497
v 0.03125 -0.3125 -0.3589622676372528
v 0.03125 -0.3430336117744446 -0.28125
v 0.03125 -0.33758288621902466 -0.25
v 0.03125 -0.3073340058326721 -0.375
v 0.05105823650956154 -0.4375 -0.40625
v 0.0625 -0.45115453004837036 -0.375
v 0.0625 -0.4375 -0.39758989214897156
v 0.0625 -0.45815253257751465 -0.34375
v 0.0625 -0.45994406938552856 -0.3125
v 0.0625 -0.45783570408821106 -0.28125
v 0.0625 -0.4447629153728485 -0.25
v 0.0625 -0.4375 -0.22972024977207184
v 0.0625 -0.42805635929107666 -0.375
v 0.0625 -0.4258091151714325 -0.34375
v 0.0625 -0.4274170696735382 -0.3125
v 0.0625 -0.42903104424476624 -0.28125
v 0.0625 -0.4329454004764557 -0.25
v 0.03220653533935547 -0.34375 -0.375
v 0.03180261701345444 -0.34375 -0.28125
v 0.03775593265891075 -0.34375 -0.25
v 0.039349667727947235 -0.3125 -0.375
v 0.08502316474914551 -0.4375 -0.375
v 0.09375 -0.4450037181377411 -0.34375
v 0.09375 -0.4375 -0.3613939583301544
v 0.09375 -0.44883230328559875 -0.3125
v 0.09375 -0.44605398178100586 -0.28125
v 0.08504673838615417 -0.4375 -0.25
v 0.09375 -0.4375 -0.2596317231655121
v 0.09375 -0.4324234426021576 -0.34375
v 0.09375 -0.4308600127696991 -0.3125
v 0.09375 -0.43390437960624695 -0.28125
v 0.1152789294719696 -0.4375 -0.34375
v 0.125 -0.4421183168888092 -0.3125
v 0.125 -0.4375 -0.33108147978782654
v 0.125 -0.4383523762226105 -0.28125
v 0.125 -0.4375 -0.2789134085178375
v 0.125 -0.4334098994731903 -0.3125
v 0.125 -0.4370167553424835 -0.28125
v 0.14484252035617828 -0.4375 -0.3125
v 0.12729637324810028 -0.4375 -0.28125
v 0.19756057858467102 -0.4375 -0.3125
v 0.21875 -0.43957868218421936 -0.3125
v 0.21875 -0.4375 -0.3216319978237152
v 0.21875 -0.4375 -0.30498185753822327
v 0.21875 -0.4363614618778229 -0.3125
v 0.2325899749994278 -0.4375 -0.3125
v 0.2708874046802521 -0.4375 -0.40625
v 0.28125 -0.44413238763809204 -0.40625
v 0.28125 -0.4375 -0.4120447635650635
v 0.25335559248924255 -0.4375 -0.375
v 0.28125 -0.45427206158638 -0.375
v 0.26600995659828186 -0.4375 -0.34375
v 0.28125 -0.445997953414917 -0.34375
v 0.27478426694869995 -0.4375 -0.3125
v 0.28125 -0.43863385915756226 -0.3125
v 0.28125 -0.4375 -0.31103262305259705
v 0.28125 -0.4349931478500366 -0.40625
v 0.28125 -0.4306027889251709 -0.375
v 0.28125 -0.43525514006614685 -0.34375
v 0.28125 -0.4372841715812683 -0.3125
v 0.2715628445148468 0.21875 -0.375
v 0.28125 0.20669600367546082 -0.375
v 0.28125 0.21875 -0.39552760124206543
v 0.28125 0.21875 -0.35536783933639526
v 0.27405405044555664 0.25 -0.375
v 0.28125 0.25 -0.3937799036502838
v 0.28125 0.25 -0.368293821811676
v 0.28125 0.25296202301979065 -0.375
v 0.29355594515800476 -0.4375 -0.40625
v 0.3125 -0.44517531991004944 -0.375
v 0.3125 -0.4375 -0.3905075490474701
v 0.3125 -0.4411819875240326 -0.34375
v 0.289085328578949 -0.4375 -0.3125
v 0.3125 -0.4375 -0.322557657957077
v 0.3125 -0.4333321452140808 -0.375
v 0.3125 -0.4360017478466034 -0.34375
v 0.2875925600528717 0.21875 -0.40625
v 0.3125 0.20108962059020996 -0.40625
v 0.3125 0.21875 -0.42820441722869873
v 0.3125 0.1942121833562851 -0.375
v 0.2889120578765869 0.21875 -0.34375
v 0.3125 0.19611188769340515 -0.34375
v 0.30686327815055847 0.21875 -0.3125
v 0.3125 0.20965398848056793 -0.3125
v 0.3125 0.21875 -0.3051339387893677
v 0.2865578830242157 0.25 -0.40625
v 0.3125 0.25 -0.4215216040611267
v 0.30655476450920105 0.25 -0.34375
v 0.3125 0.23022432625293732 -0.3125
v 0.3125 0.25 -0.3347698450088501
v 0.3125 0.2592141032218933 -0.40625
v 0.3125 0.26164302229881287 -0.375
v 0.3125 0.2529235780239105 -0.34375
v 0.3209781348705292 -0.4375 -0.375
v 0.3168826401233673 -0.4375 -0.34375
v 0.3410871624946594 0.1875 -0.40625
v 0.34375 0.18620704114437103 -0.40625
v 0.34375 0.1875 -0.40831610560417175
v 0.34375 0.1875 -0.4026474356651306
v 0.34375 0.21875 -0.4259210526943207
v 0.34375 0.1983061283826828 -0.375
v 0.34375 0.2083149552345276 -0.34375
v 0.34375 0.20623548328876495 -0.3125
v 0.34375 0.21875 -0.3032721281051636
v 0.34375 0.25 -0.4180313050746918
v 0.34375 0.24161440134048462 -0.3125
v 0.34375 0.25 -0.324623703956604
v 0.34375 0.2603132426738739 -0.40625
v 0.34375 0.26088497042655945 -0.375
v 0.34375 0.25342798233032227 -0.34375
v 0.3636230528354645 -0.3125 -0.34375
v 0.375 -0.3206261992454529 -0.34375
v 0.375 -0.3125 -0.3505491614341736
v 0.3639225363731384 -0.3125 -0.3125
v 0.375 -0.32134756445884705 -0.3125
v 0.375 -0.3125 -0.2978708744049072
v 0.375 -0.30802011489868164 -0.34375
v 0.375 -0.3071526885032654 -0.3125
v 0.375 0.17744192481040955 -0.40625
v 0.375 0.1875 -0.42586761713027954
v 0.375 0.1875 -0.37723830342292786
v 0.36781933903694153 0.1875 -0.3125
v 0.375 0.18415981531143188 -0.3125
v 0.375 0.1875 -0.3191656172275543
v 0.375 0.1875 -0.29406994581222534
v 0.375 0.21875 -0.4197530448436737
v 0.375 0.1921241581439972 -0.375
v 0.375 0.21656197309494019 -0.34375
v 0.375 0.21875 -0.30524003505706787
v 0.375 0.25 -0.42241349816322327
v 0.37414810061454773 0.25 -0.34375
v 0.375 0.24638670682907104 -0.34375
v 0.375 0.25 -0.34439998865127563
v 0.35727545619010925 0.25 -0.3125
v 0.375 0.25 -0.3427301049232483
v 0.375 0.25 -0.30736157298088074
v 0.375 0.2637653648853302 -0.40625
v 0.375 0.25563663244247437 -0.375
v 0.375 0.25442901253700256 -0.3125
v 0.39831799268722534 -0.34375 -0.28125
v 0.40625 -0.35853859782218933 -0.28125
v 0.40625 -0.34375 -0.30456170439720154
v 0.40625 -0.34375 -0.25649893283843994
v 0.40625 -0.3228442072868347 -0.34375
v 0.40625 -0.3125 -0.3501898944377899
v 0.40625 -0.3398517966270447 -0.3125
v 0.39455676078796387 -0.3125 -0.28125
v 0.40625 -0.3125 -0.2611698508262634
v 0.40625 -0.30736663937568665 -0.34375
v 0.40625 -0.30451497435569763 -0.3125
v 0.40625 -0.3099917471408844 -0.28125
v 0.4053232967853546 -0.1875 -0.3125
v 0.40625 -0.18912291526794434 -0.3125
v 0.40625 -0.1875 -0.31407099962234497
v 0.39110806584358215 -0.1875 -0.28125
v 0.40625 -0.19913052022457123 -0.28125
v 0.40625 -0.1875 -0.257408082485199
v 0.40625 -0.18697670102119446 -0.3125
v 0.40625 -0.17613457143306732 -0.28125
v 0.4057025909423828 0.15625 -0.28125
v 0.40625 0.15578921139240265 -0.28125
v 0.40625 0.15625 -0.28583160042762756
v 0.40625 0.15625 -0.27890610694885254
v 0.40261372923851013 0.15625 -0.21875
v 0.40625 0.15277297794818878 -0.21875
v 0.40625 0.15625 -0.23076283931732178
v 0.40625 0.15625 -0.2035743147134781
v 0.40625 0.17366915941238403 -0.40625
v 0.40625 0.1875 -0.4264926314353943
v 0.38287782669067383 0.1875 -0.375
v 0.40625 0.18507660925388336 -0.375
v 0.40625 0.1875 -0.3590322732925415
v 0.40625 0.16043539345264435 -0.3125
v 0.40625 0.1875 -0.3391639292240143
v 0.3791141211986542 0.1875 -0.28125
v 0.3794603645801544 0.1875 -0.25
v 0.40625 0.1650690734386444 -0.25
v 0.37737607955932617 0.1875 -0.21875
v 0.40542903542518616 0.1875 -0.1875
v 0.40625 0.18440206348896027 -0.1875
v 0.40625 0.1875 -0.18699821829795837
v 0.39067837595939636 0.21875 -0.40625
v 0.40625 0.20200468599796295 -0.40625
v 0.3835872411727905 0.21875 -0.375
v 0.40625 0.19260457158088684 -0.375
v 0.3773984909057617 0.21875 -0.34375
v 0.40041717886924744 0.21875 -0.3125
v 0.40625 0.2165592759847641 -0.3125
v 0.40625 0.2008233666419983 -0.28125
v 0.40625 0.20125870406627655 -0.25
v 0.40625 0.20558293163776398 -0.21875
v 0.40625 0.18793262541294098 -0.1875
v 0.38734495639801025 0.25 -0.40625
v 0.38265785574913025 0.25 -0.375
v 0.3845713138580322 0.25 -0.3125
v 0.41030415892601013 -0.34375 -0.28125
v 0.4116182029247284 -0.3125 -0.34375
v 0.4171081483364105 -0.3125 -0.3125
v 0.41042399406433105 -0.3125 -0.28125
v 0.40706080198287964 -0.1875 -0.3125
v 0.4204254746437073 -0.1875 -0.28125
v 0.4066637456417084 0.15625 -0.28125
v 0.4089535176753998 0.15625 -0.21875
v 0.4147241413593292 0.1875 -0.40625
v 0.40905681252479553 0.1875 -0.375
v 0.4161131978034973 0.1875 -0.3125
v 0.4149766266345978 0.1875 -0.28125
v 0.41513791680336 0.1875 -0.25
v 0.41723257303237915 0.1875 -0.21875
v 0.4065083861351013 0.1875 -0.1875
f 3 1 2
f 2 4 5
f 1 4 2
f 5 4 6
f 3 7 1
f 1 8 4
f 7 8 1
f 4 8 6
f 2 9 3
f 5 9 2
f 10 9 5
f 5 6 10
f 9 7 3
f 10 7 9
f 8 7 10
f 10 6 8
f 13 11 12
f 12 14 15
f 11 14 12
f 15 14 16
f 13 17 11
f 11 18 14
f 17 18 11
f 14 18 16
f 21 19 20
f 20 22 23
f 19 22 20
f 23 22 24
f 21 25 19
f 19 26 22
f 25 26 19
f 22 26 24
f 13 27 28
f 12 27 13
f 27 12 29
f 12 15 29
f 30 15 16
f 30 31 15
f 31 29 15
f 31 30 32
f 28 17 13
f 33 17 28
f 33 34 17
f 17 34 18
f 16 35 30
f 16 18 35
f 18 34 35
f 30 35 32
f 38 36 37
f 37 36 39
f 21 40 41
f 20 40 21
f 36 38 40
f 36 40 23
f 23 40 20
f 23 24 42
f 36 23 42
f 36 42 43
f 36 43 39
f 43 42 44
f 41 25 21
f 45 25 41
f 45 46 25
f 25 46 26
f 24 47 42
f 24 26 47
f 26 46 47
f 42 47 44
f 50 48 49
f 49 48 51
f 50 52 48
f 48 52 51
f 27 53 28
f 29 53 27
f 54 53 29
f 54 55 56
f 54 29 55
f 29 31 55
f 31 57 55
f 32 57 31
f 53 33 28
f 54 33 53
f 34 33 54
f 56 34 54
f 56 58 34
f 58 35 34
f 58 32 35
f 57 32 58
f 37 59 38
f 37 39 59
f 40 60 41
f 38 60 40
f 38 59 60
f 59 61 60
f 39 61 59
f 39 62 61
f 39 43 62
f 63 61 62
f 43 64 62
f 44 64 43
f 60 45 41
f 61 45 60
f 46 45 61
f 63 46 61
f 63 65 46
f 65 47 46
f 65 44 47
f 64 44 65
f 50 66 67
f 49 66 50
f 49 68 66
f 51 68 49
f 67 52 50
f 69 52 67
f 69 51 52
f 68 51 69
f 55 70 56
f 55 57 70
f 70 58 56
f 70 57 58
f 62 71 63
f 62 64 71
f 71 65 63
f 71 64 65
f 67 72 73
f 66 72 67
f 74 66 68
f 74 75 66
f 75 72 66
f 75 74 76
f 73 69 67
f 77 69 73
f 68 78 74
f 68 69 78
f 69 77 78
f 74 78 76
f 81 79 80
f 80 82 83
f 79 82 80
f 83 82 84
f 81 85 79
f 79 86 82
f 85 86 79
f 82 86 84
f 73 87 88
f 72 87 73
f 87 72 89
f 72 75 89
f 90 75 76
f 90 91 75
f 91 89 75
f 91 92 93
f 90 92 91
f 93 92 94
f 88 77 73
f 95 77 88
f 95 96 77
f 77 96 78
f 76 97 90
f 76 78 97
f 78 96 97
f 90 98 92
f 97 98 90
f 92 98 94
f 80 99 81
f 83 99 80
f 100 99 83
f 83 84 100
f 99 85 81
f 100 85 99
f 86 85 100
f 100 84 86
f 88 101 102
f 87 101 88
f 101 87 103
f 87 89 103
f 103 89 104
f 89 91 104
f 104 91 105
f 91 93 105
f 106 93 94
f 106 107 93
f 107 105 93
f 107 106 108
f 102 95 88
f 109 95 102
f 109 110 95
f 95 110 96
f 110 111 96
f 96 111 97
f 111 112 97
f 97 112 98
f 94 113 106
f 94 98 113
f 98 112 113
f 106 113 108
f 116 114 115
f 115 114 117
f 120 118 119
f 119 114 116
f 119 118 114
f 118 121 114
f 117 121 122
f 114 121 117
f 120 123 118
f 118 124 121
f 123 124 118
f 121 124 122
f 101 125 102
f 125 126 127
f 125 101 126
f 101 103 126
f 126 103 128
f 103 104 128
f 128 104 129
f 104 105 129
f 129 105 130
f 105 107 130
f 107 131 130
f 108 131 107
f 125 109 102
f 127 109 125
f 127 132 109
f 132 110 109
f 132 133 110
f 110 133 111
f 133 134 111
f 111 134 112
f 134 135 112
f 112 135 113
f 135 108 113
f 131 108 135
f 115 136 116
f 115 117 136
f 139 137 138
f 120 138 137
f 120 119 138
f 119 140 138
f 116 136 141
f 116 141 119
f 119 141 140
f 136 142 141
f 136 117 142
f 117 122 142
f 139 143 137
f 137 123 120
f 137 143 123
f 143 144 123
f 144 145 123
f 123 145 124
f 145 122 124
f 142 122 145
f 127 146 147
f 126 146 127
f 146 126 148
f 126 128 148
f 148 128 149
f 128 129 149
f 149 129 150
f 129 130 150
f 130 151 150
f 131 151 130
f 147 132 127
f 152 132 147
f 152 153 132
f 132 153 133
f 153 154 133
f 133 154 134
f 154 155 134
f 134 155 135
f 155 131 135
f 151 131 155
f 139 156 157
f 138 156 139
f 156 138 158
f 138 140 158
f 160 141 159
f 160 158 141
f 158 140 141
f 141 142 159
f 157 143 139
f 161 143 157
f 161 162 143
f 143 162 144
f 159 162 160
f 159 145 162
f 145 144 162
f 159 142 145
f 165 163 164
f 164 163 166
f 165 167 163
f 163 167 166
f 170 168 169
f 169 171 172
f 168 171 169
f 147 172 171
f 147 146 172
f 146 173 172
f 173 146 174
f 146 148 174
f 174 148 175
f 148 149 175
f 175 149 176
f 149 150 176
f 177 150 151
f 177 178 150
f 178 176 150
f 178 177 179
f 170 180 168
f 168 181 171
f 180 181 168
f 171 152 147
f 171 181 152
f 181 182 152
f 182 183 152
f 152 183 153
f 183 184 153
f 153 184 154
f 184 185 154
f 154 185 155
f 151 186 177
f 151 155 186
f 155 185 186
f 177 186 179
f 156 187 157
f 158 187 156
f 188 187 158
f 158 160 188
f 187 161 157
f 188 161 187
f 162 161 188
f 188 160 162
f 191 189 190
f 190 192 193
f 189 192 190
f 193 192 194
f 191 195 189
f 189 196 192
f 195 196 189
f 192 196 194
f 164 197 165
f 164 166 197
f 197 167 165
f 197 166 167
f 170 198 199
f 169 198 170
f 198 169 200
f 169 172 200
f 200 172 201
f 172 173 201
f 201 173 202
f 173 174 202
f 202 174 203
f 174 175 203
f 203 175 204
f 175 176 204
f 204 176 205
f 176 178 205
f 206 178 179
f 206 207 178
f 207 205 178
f 207 208 209
f 206 208 207
f 209 210 211
f 208 210 209
f 211 210 212
f 199 180 170
f 213 180 199
f 213 214 180
f 180 214 181
f 214 215 181
f 181 215 182
f 215 216 182
f 182 216 183
f 216 217 183
f 183 217 184
f 217 218 184
f 184 218 185
f 218 219 185
f 185 219 186
f 179 220 206
f 179 186 220
f 186 219 220
f 206 221 208
f 220 221 206
f 208 222 210
f 221 222 208
f 210 222 212
f 190 223 191
f 193 223 190
f 224 223 193
f 193 194 224
f 223 195 191
f 224 195 223
f 196 195 224
f 224 194 196
f 199 225 226
f 198 225 199
f 225 198 227
f 198 200 227
f 227 200 228
f 200 201 228
f 228 201 229
f 201 202 229
f 229 202 230
f 202 203 230
f 230 203 231
f 203 204 231
f 233 205 232
f 233 231 205
f 231 204 205
f 207 232 205
f 234 232 207
f 209 234 207
f 235 234 209
f 211 235 209
f 236 235 211
f 211 212 236
f 226 213 199
f 237 213 226
f 237 238 213
f 213 238 214
f 238 239 214
f 214 239 215
f 239 240 215
f 215 240 216
f 240 241 216
f 216 241 217
f 241 242 217
f 217 242 218
f 232 242 233
f 232 219 242
f 219 218 242
f 234 219 232
f 220 219 234
f 235 220 234
f 221 220 235
f 236 221 235
f 222 221 236
f 236 212 222
f 245 243 244
f 244 246 247
f 243 246 244
f 247 246 248
f 245 249 243
f 251 243 249
f 251 250 243
f 250 246 243
f 248 250 252
f 246 250 248
f 251 253 250
f 250 253 252
f 226 254 255
f 225 254 226
f 254 225 256
f 225 227 256
f 256 227 257
f 227 228 257
f 257 228 258
f 228 229 258
f 258 229 259
f 229 230 259
f 261 231 260
f 261 259 231
f 259 230 231
f 231 233 260
f 255 237 226
f 262 237 255
f 262 263 237
f 237 263 238
f 263 264 238
f 238 264 239
f 264 265 239
f 239 265 240
f 265 266 240
f 240 266 241
f 260 266 261
f 260 242 266
f 242 241 266
f 260 233 242
f 269 267 268
f 268 270 271
f 267 270 268
f 271 270 272
f 244 273 245
f 273 269 274
f 273 247 269
f 273 244 247
f 247 267 269
f 275 270 267
f 275 267 248
f 275 248 276
f 248 267 247
f 270 275 272
f 273 249 245
f 249 277 251
f 273 277 249
f 273 278 277
f 273 274 278
f 278 252 277
f 278 276 252
f 276 248 252
f 277 253 251
f 277 252 253
f 255 279 280
f 254 279 255
f 279 254 281
f 254 256 281
f 281 256 282
f 256 257 282
f 282 257 283
f 257 258 283
f 283 258 284
f 258 259 284
f 259 285 284
f 261 285 259
f 280 262 255
f 286 262 280
f 286 287 262
f 262 287 263
f 287 288 263
f 263 288 264
f 288 289 264
f 264 289 265
f 289 290 265
f 265 290 266
f 290 261 266
f 285 261 290
f 268 291 269
f 291 292 293
f 291 268 292
f 268 271 292
f 271 294 292
f 272 294 271
f 295 269 291
f 274 269 295
f 293 296 275
f 293 275 295
f 293 295 291
f 295 275 276
f 296 272 275
f 294 272 296
f 295 278 274
f 295 276 278
f 280 297 298
f 279 297 280
f 297 279 299
f 279 281 299
f 299 281 300
f 281 282 300
f 300 282 301
f 282 283 301
f 301 283 302
f 283 284 302
f 303 284 285
f 303 304 284
f 304 302 284
f 304 303 305
f 298 286 280
f 306 286 298
f 306 307 286
f 286 307 287
f 307 308 287
f 287 308 288
f 308 309 288
f 288 309 289
f 309 310 289
f 289 310 290
f 285 311 303
f 285 290 311
f 290 310 311
f 303 311 305
f 292 312 293
f 292 294 312
f 315 313 314
f 314 313 316
f 319 317 318
f 318 320 321
f 317 320 318
f 321 320 322
f 293 312 296
f 312 294 296
f 324 313 315
f 323 313 324
f 316 323 325
f 313 323 316
f 319 326 317
f 317 327 320
f 326 327 317
f 320 327 322
f 324 328 323
f 323 328 325
f 297 329 298
f 329 330 331
f 329 297 330
f 297 299 330
f 330 299 332
f 299 300 332
f 332 300 333
f 300 301 333
f 333 301 334
f 301 302 334
f 334 302 335
f 302 304 335
f 304 336 335
f 305 336 304
f 329 306 298
f 331 306 329
f 331 337 306
f 337 307 306
f 337 338 307
f 307 338 308
f 338 339 308
f 308 339 309
f 339 340 309
f 309 340 310
f 340 341 310
f 310 341 311
f 341 305 311
f 336 305 341
f 314 342 315
f 314 316 342
f 318 343 319
f 321 343 318
f 344 343 321
f 321 322 344
f 345 315 342
f 324 315 345
f 342 325 345
f 316 325 342
f 343 326 319
f 344 326 343
f 327 326 344
f 344 322 327
f 345 328 324
f 345 325 328
f 330 346 331
f 346 347 348
f 346 330 347
f 330 332 347
f 347 332 349
f 332 333 349
f 349 333 350
f 333 334 350
f 352 335 351
f 352 350 335
f 350 334 335
f 335 336 351
f 346 337 331
f 348 337 346
f 348 353 337
f 353 338 337
f 353 354 338
f 338 354 339
f 354 355 339
f 339 355 340
f 351 355 352
f 351 341 355
f 341 340 355
f 351 336 341
f 347 356 348
f 356 357 358
f 356 347 357
f 347 349 357
f 357 349 359
f 349 350 359
f 350 360 359
f 352 360 350
f 356 353 348
f 358 353 356
f 358 361 353
f 361 354 353
f 361 362 354
f 354 362 355
f 362 352 355
f 360 352 362
f 357 363 358
f 359 363 357
f 364 363 359
f 359 360 364
f 363 361 358
f 364 361 363
f 362 361 364
f 364 360 362
f 367 365 366
f 366 365 368
f 367 369 365
f 365 369 368
f 366 370 367
f 366 368 370
f 370 369 367
f 370 368 369
f 373 371 372
f 372 374 375
f 371 374 372
f 375 376 377
f 374 376 375
f 377 378 379
f 376 378 377
f 379 378 380
f 373 381 371
f 371 382 374
f 381 382 371
f 374 383 376
f 382 383 374
f 376 384 378
f 383 384 376
f 378 384 380
f 387 385 386
f 386 385 388
f 390 385 387
f 389 385 390
f 388 389 391
f 385 389 388
f 390 392 389
f 389 392 391
f 372 393 373
f 393 394 395
f 393 372 394
f 372 375 394
f 394 375 396
f 375 377 396
f 398 379 397
f 398 396 379
f 396 377 379
f 379 380 397
f 393 381 373
f 395 381 393
f 395 399 381
f 399 382 381
f 399 400 382
f 382 400 383
f 397 400 398
f 397 384 400
f 384 383 400
f 397 380 384
f 403 401 402
f 387 402 401
f 387 386 402
f 386 404 402
f 405 386 388
f 405 406 386
f 406 404 386
f 406 407 408
f 405 407 406
f 408 407 409
f 411 401 403
f 410 401 411
f 401 410 390
f 387 401 390
f 412 405 388
f 391 412 388
f 413 412 414
f 413 407 412
f 407 405 412
f 407 413 409
f 411 415 410
f 410 392 390
f 410 415 392
f 415 416 392
f 391 417 412
f 391 392 417
f 392 416 417
f 412 417 414
f 394 418 395
f 396 418 394
f 419 418 396
f 396 398 419
f 418 399 395
f 419 399 418
f 400 399 419
f 419 398 400
f 422 420 421
f 421 420 423
f 420 403 402
f 420 422 403
f 422 424 403
f 423 420 402
f 423 402 425
f 425 402 404
f 425 404 426
f 404 406 426
f 426 406 427
f 406 408 427
f 408 428 427
f 409 428 408
f 424 429 403
f 429 411 403
f 414 431 430
f 413 414 430
f 430 409 413
f 428 409 430
f 429 415 411
f 432 415 429
f 432 433 415
f 415 433 416
f 433 434 416
f 416 434 417
f 434 414 417
f 431 414 434
f 437 435 436
f 436 438 439
f 435 438 436
f 439 438 440
f 437 441 435
f 435 442 438
f 441 442 435
f 438 442 440
f 422 443 444
f 421 443 422
f 421 445 443
f 423 445 421
f 448 446 447
f 447 446 449
f 444 450 422
f 450 424 422
f 445 423 425
f 451 445 425
f 451 425 452
f 425 426 452
f 446 448 452
f 446 452 427
f 427 452 426
f 427 449 446
f 427 428 449
f 428 453 449
f 450 454 424
f 454 429 424
f 457 456 455
f 431 455 456
f 431 456 430
f 459 458 456
f 458 430 456
f 458 428 430
f 458 460 428
f 460 453 428
f 454 432 429
f 461 432 454
f 461 462 432
f 432 462 433
f 455 462 457
f 455 434 462
f 434 433 462
f 459 463 458
f 455 431 434
f 458 463 460
f 466 464 465
f 465 464 467
f 437 468 469
f 436 468 437
f 468 436 470
f 436 439 470
f 466 471 464
f 466 439 471
f 466 470 439
f 440 471 439
f 467 471 472
f 464 471 467
f 469 441 437
f 473 441 469
f 473 474 441
f 441 474 442
f 440 475 471
f 440 442 475
f 442 474 475
f 471 475 472
f 478 476 477
f 477 479 480
f 476 479 477
f 480 479 481
f 478 482 476
f 476 483 479
f 482 483 476
f 479 483 481
f 486 484 485
f 485 484 487
f 490 488 489
f 489 488 491
f 444 492 493
f 443 492 444
f 494 443 445
f 494 495 443
f 495 492 443
f 495 494 496
f 448 497 498
f 447 497 448
f 486 499 484
f 486 447 499
f 486 497 447
f 449 499 447
f 487 500 501
f 487 484 500
f 484 499 500
f 501 488 490
f 501 500 488
f 500 502 488
f 491 503 504
f 491 488 503
f 488 502 503
f 504 503 505
f 506 493 507
f 506 450 493
f 450 444 493
f 508 506 445
f 508 445 451
f 506 507 445
f 494 445 509
f 507 509 445
f 508 452 510
f 508 451 452
f 494 509 496
f 512 448 498
f 512 510 448
f 512 511 510
f 452 448 510
f 511 512 513
f 511 513 449
f 511 449 453
f 499 449 513
f 499 514 500
f 513 514 499
f 500 515 502
f 514 515 500
f 502 516 503
f 515 516 502
f 503 516 505
f 517 450 506
f 454 450 517
f 506 508 517
f 508 518 517
f 457 510 456
f 457 518 510
f 518 508 510
f 456 519 459
f 456 510 519
f 510 511 519
f 511 460 519
f 453 460 511
f 517 461 454
f 518 461 517
f 462 461 518
f 518 457 462
f 519 463 459
f 519 460 463
f 465 520 466
f 465 467 520
f 468 521 469
f 470 521 468
f 522 521 470
f 466 522 470
f 466 520 522
f 520 523 522
f 520 472 523
f 467 472 520
f 521 473 469
f 522 473 521
f 474 473 522
f 523 474 522
f 475 474 523
f 523 472 475
f 477 524 478
f 480 524 477
f 525 524 480
f 480 481 525
f 524 482 478
f 525 482 524
f 483 482 525
f 525 481 483
f 485 526 486
f 485 487 526
f 489 527 490
f 489 491 527
f 492 528 493
f 495 528 492
f 529 528 495
f 495 496 529
f 497 530 498
f 486 530 497
f 486 526 530
f 526 531 530
f 501 526 487
f 501 532 526
f 532 531 526
f 490 532 501
f 490 527 532
f 527 533 532
f 504 527 491
f 504 534 527
f 534 533 527
f 504 505 534
f 528 507 493
f 529 507 528
f 509 507 529
f 529 496 509
f 530 512 498
f 531 512 530
f 513 512 531
f 532 513 531
f 514 513 532
f 533 514 532
f 515 514 533
f 534 515 533
f 516 515 534
f 534 505 516
