v -0.42690029740333557 -0.0625 -0.28125
v -0.40625 -0.06920831650495529 -0.28125
v -0.40625 -0.0625 -0.29108017683029175
v -0.40625 -0.0625 -0.2517387270927429
v -0.40625 -0.0562603659927845 -0.28125
v -0.41802680492401123 0.4375 -0.25
v -0.40625 0.4301187992095947 -0.25
v -0.40625 0.4375 -0.2587487995624542
v -0.414781779050827 0.4375 -0.21875
v -0.40625 0.4338526129722595 -0.21875
v -0.40625 0.4375 -0.19643782079219818
v -0.40625 0.4410211145877838 -0.25
v -0.40625 0.44037964940071106 -0.21875
v -0.37994325160980225 -0.0625 -0.28125
v -0.3908662497997284 0.3125 -0.25
v -0.375 0.3060266673564911 -0.25
v -0.375 0.3125 -0.26175716519355774
v -0.39670097827911377 0.3125 -0.21875
v -0.375 0.2948761284351349 -0.21875
v -0.39055800437927246 0.3125 -0.1875
v -0.375 0.2982911765575409 -0.1875
v -0.382477730512619 0.3125 -0.15625
v -0.375 0.30578893423080444 -0.15625
v -0.375 0.3125 -0.1272248774766922
v -0.375 0.3156109154224396 -0.25
v -0.375 0.319719523191452 -0.21875
v -0.375 0.31687408685684204 -0.1875
v -0.375 0.3141745328903198 -0.15625
v -0.38495391607284546 0.4375 -0.25
v -0.375 0.4144757091999054 -0.21875
v -0.375 0.4375 -0.23659268021583557
v -0.3964342474937439 0.4375 -0.1875
v -0.375 0.4261458218097687 -0.1875
v -0.375 0.4375 -0.17378945648670197
v -0.375 0.43971022963523865 -0.21875
v -0.375 0.4401156008243561 -0.1875
v -0.36876988410949707 0.3125 -0.25
v -0.350650429725647 0.3125 -0.21875
v -0.35179364681243896 0.3125 -0.1875
v -0.36302101612091064 0.3125 -0.15625
v -0.37133660912513733 0.4375 -0.21875
v -0.3680010735988617 0.4375 -0.1875
v -0.32468435168266296 -0.4375 -0.40625
v -0.3125 -0.4439479112625122 -0.40625
v -0.3125 -0.4375 -0.4313516914844513
v -0.3233587443828583 -0.4375 -0.375
v -0.3125 -0.44254788756370544 -0.375
v -0.3125 -0.4375 -0.3562186360359192
v -0.3125 -0.4356052875518799 -0.40625
v -0.3125 -0.4356667399406433 -0.375
v -0.28863540291786194 -0.4375 -0.40625
v -0.28125 -0.4389983117580414 -0.375
v -0.28125 -0.4375 -0.38947638869285583
v -0.28125 -0.4375 -0.3683278262615204
v -0.28125 -0.43689972162246704 -0.375
v -0.2996895909309387 0.0625 -0.4375
v -0.28125 0.05700475722551346 -0.4375
v -0.28125 0.0625 -0.4440184235572815
v -0.28125 0.0625 -0.42817094922065735
v -0.28125 0.06502283364534378 -0.4375
v -0.25594767928123474 -0.4375 -0.375
v -0.2548220157623291 -0.4375 -0.34375
v -0.25 -0.4385342001914978 -0.34375
v -0.25 -0.4375 -0.36690255999565125
v -0.25 -0.4375 -0.3407248258590698
v -0.25 -0.43686163425445557 -0.34375
v -0.2598770260810852 0.0625 -0.4375
v -0.24394835531711578 -0.4375 -0.34375
v -0.19145287573337555 -0.1875 -0.21875
v -0.1875 -0.191519632935524 -0.21875
v -0.1875 -0.1875 -0.2279701977968216
v -0.1875 -0.1875 -0.21373280882835388
v -0.1875 -0.18183757364749908 -0.21875
v -0.15917646884918213 -0.4375 -0.3125
v -0.15625 -0.43859758973121643 -0.3125
v -0.15625 -0.4375 -0.320548415184021
v -0.16497401893138885 -0.4375 -0.28125
v -0.15625 -0.4410483241081238 -0.28125
v -0.15625 -0.4375 -0.2636524736881256
v -0.15625 -0.43687704205513 -0.3125
v -0.15625 -0.43521419167518616 -0.28125
v -0.17378363013267517 -0.1875 -0.25
v -0.15625 -0.20002909004688263 -0.25
v -0.15625 -0.1875 -0.2637485861778259
v -0.15625 -0.19281980395317078 -0.21875
v -0.15625 -0.1875 -0.21366050839424133
v -0.15625 -0.17653687298297882 -0.25
v -0.15625 -0.18035177886486053 -0.21875
v -0.14133496582508087 -0.4375 -0.34375
v -0.125 -0.44071221351623535 -0.34375
v -0.125 -0.4375 -0.3533211648464203
v -0.125 -0.4451138377189636 -0.3125
v -0.125 -0.44634807109832764 -0.28125
v -0.14392955601215363 -0.4375 -0.25
v -0.125 -0.4407876133918762 -0.25
v -0.125 -0.4375 -0.2287517637014389
v -0.125 -0.436023473739624 -0.34375
v -0.125 -0.4331014156341553 -0.3125
v -0.125 -0.43159186840057373 -0.28125
v -0.125 -0.43470555543899536 -0.25
v -0.13455362617969513 -0.1875 -0.25
v -0.1472780406475067 -0.1875 -0.21875
v -0.0949285700917244 -0.4375 -0.375
v -0.09375 -0.43782731890678406 -0.375
v -0.09375 -0.4375 -0.3762497007846832
v -0.09375 -0.44690364599227905 -0.34375
v -0.09375 -0.44472846388816833 -0.3125
v -0.09375 -0.44126731157302856 -0.28125
v -0.10617996752262115 -0.4375 -0.25
v -0.09375 -0.4375 -0.261944055557251
v -0.09375 -0.437388151884079 -0.375
v -0.09375 -0.4323645830154419 -0.34375
v -0.09375 -0.4336993992328644 -0.3125
v -0.09375 -0.4351819157600403 -0.28125
v -0.0625 -0.4467875361442566 -0.375
v -0.0625 -0.4375 -0.40277260541915894
v -0.0625 -0.45063304901123047 -0.34375
v -0.0625 -0.4448610544204712 -0.3125
v -0.0625 -0.4424574077129364 -0.28125
v -0.0625 -0.4375 -0.2660663425922394
v -0.0625 -0.4339742362499237 -0.375
v -0.0625 -0.43070071935653687 -0.34375
v -0.0625 -0.43478456139564514 -0.3125
v -0.0625 -0.43468591570854187 -0.28125
v -0.06511735916137695 -0.34375 -0.25
v -0.0625 -0.3447965979576111 -0.25
v -0.0625 -0.34375 -0.2523329257965088
v -0.0625 -0.34375 -0.2471849024295807
v -0.0625 -0.33927929401397705 -0.25
v -0.03125 -0.4476471245288849 -0.375
v -0.03125 -0.4375 -0.4036320149898529
v -0.03125 -0.44426414370536804 -0.34375
v -0.03125 -0.4427368938922882 -0.3125
v -0.03125 -0.4387778341770172 -0.28125
v -0.03125 -0.4375 -0.2785787284374237
v -0.03125 -0.4323970079421997 -0.375
v -0.03125 -0.4347686469554901 -0.34375
v -0.03125 -0.43572190403938293 -0.3125
v -0.03125 -0.43677571415901184 -0.28125
v -0.050283096730709076 -0.34375 -0.25
v -0.02507612481713295 -0.4375 -0.40625
v 0.0 -0.44188132882118225 -0.40625
v 0.0 -0.4375 -0.41422879695892334
v 0.0 -0.4438471794128418 -0.375
v 0.0 -0.4438689649105072 -0.34375
v 0.0 -0.4441277086734772 -0.3125
v 0.0 -0.4376559257507324 -0.28125
v 0.0 -0.4375 -0.28095200657844543
v 0.0 -0.43490850925445557 -0.40625
v 0.0 -0.4341408312320709 -0.375
v 0.0 -0.43461883068084717 -0.34375
v 0.0 -0.4342325031757355 -0.3125
v 0.0 -0.4373965561389923 -0.28125
v -0.015584542416036129 -0.34375 -0.25
v 0.0 -0.34536418318748474 -0.25
v 0.0 -0.34375 -0.25554901361465454
v 0.0 -0.34375 -0.24471065402030945
v 0.0 -0.3398205637931824 -0.25
v 0.01839434914290905 -0.4375 -0.40625
v 0.03125 -0.44224175810813904 -0.375
v 0.03125 -0.4375 -0.3949320614337921
v 0.03125 -0.4463343620300293 -0.34375
v 0.03125 -0.44590097665786743 -0.3125
v 0.009163221344351768 -0.4375 -0.28125
v 0.03125 -0.4375 -0.28249475359916687
v 0.03125 -0.43472278118133545 -0.375
v 0.03125 -0.4325481355190277 -0.34375
v 0.03125 -0.43251898884773254 -0.3125
v 0.008763710968196392 -0.34375 -0.25
v 0.04390135407447815 -0.4375 -0.375
v 0.053206950426101685 -0.4375 -0.34375
v 0.05318240448832512 -0.4375 -0.3125
v 0.28804367780685425 0.21875 -0.375
v 0.3125 0.20865684747695923 -0.375
v 0.3125 0.21875 -0.38565823435783386
v 0.3125 0.21875 -0.36100339889526367
v 0.3081832230091095 0.25 -0.375
v 0.3125 0.25 -0.37814468145370483
v 0.3125 0.25 -0.3715879023075104
v 0.3125 0.25158724188804626 -0.375
v 0.33656540513038635 0.21875 -0.375
v 0.3305680751800537 0.25 -0.375
v 0.4039325416088104 0.1875 -0.28125
v 0.40625 0.18480616807937622 -0.28125
v 0.40625 0.1875 -0.2860092520713806
v 0.40561485290527344 0.1875 -0.25
v 0.40625 0.18692807853221893 -0.25
v 0.40625 0.1875 -0.24817542731761932
v 0.40625 0.1905217319726944 -0.28125
v 0.40625 0.18840228021144867 -0.25
v 0.4072546362876892 0.1875 -0.28125
v 0.4065335690975189 0.1875 -0.25
f 3 1 2
f 2 1 4
f 3 5 1
f 1 5 4
f 8 6 7
f 7 9 10
f 6 9 7
f 10 9 11
f 8 12 6
f 6 13 9
f 12 13 6
f 9 13 11
f 2 14 3
f 2 4 14
f 14 5 3
f 14 4 5
f 17 15 16
f 16 18 19
f 15 18 16
f 19 20 21
f 18 20 19
f 21 22 23
f 20 22 21
f 23 22 24
f 17 25 15
f 15 26 18
f 25 26 15
f 18 27 20
f 26 27 18
f 20 28 22
f 27 28 20
f 22 28 24
f 7 29 8
f 29 30 31
f 29 7 30
f 7 10 30
f 32 10 11
f 32 33 10
f 33 30 10
f 33 32 34
f 29 12 8
f 31 12 29
f 31 35 12
f 35 13 12
f 11 36 32
f 11 13 36
f 13 35 36
f 32 36 34
f 16 37 17
f 19 37 16
f 38 37 19
f 21 38 19
f 39 38 21
f 23 39 21
f 40 39 23
f 23 24 40
f 37 25 17
f 38 25 37
f 26 25 38
f 39 26 38
f 27 26 39
f 40 27 39
f 28 27 40
f 40 24 28
f 30 41 31
f 33 41 30
f 42 41 33
f 33 34 42
f 41 35 31
f 42 35 41
f 36 35 42
f 42 34 36
f 45 43 44
f 44 46 47
f 43 46 44
f 47 46 48
f 45 49 43
f 43 50 46
f 49 50 43
f 46 50 48
f 44 51 45
f 51 52 53
f 51 44 52
f 44 47 52
f 47 54 52
f 48 54 47
f 51 49 45
f 53 49 51
f 53 55 49
f 55 50 49
f 55 48 50
f 54 48 55
f 58 56 57
f 57 56 59
f 58 60 56
f 56 60 59
f 52 61 53
f 61 52 54
f 64 62 63
f 63 62 65
f 61 55 53
f 64 66 62
f 61 54 55
f 62 66 65
f 57 67 58
f 57 59 67
f 67 60 58
f 67 59 60
f 63 68 64
f 63 65 68
f 68 66 64
f 68 65 66
f 71 69 70
f 70 69 72
f 71 73 69
f 69 73 72
f 76 74 75
f 75 77 78
f 74 77 75
f 78 77 79
f 76 80 74
f 74 81 77
f 80 81 74
f 77 81 79
f 84 82 83
f 71 83 82
f 71 70 83
f 70 85 83
f 70 86 85
f 72 86 70
f 84 87 82
f 82 73 71
f 82 87 73
f 87 88 73
f 88 72 73
f 86 72 88
f 91 89 90
f 76 90 89
f 76 75 90
f 75 92 90
f 92 75 93
f 75 78 93
f 94 78 79
f 94 95 78
f 95 93 78
f 95 94 96
f 91 97 89
f 89 80 76
f 89 97 80
f 97 98 80
f 98 99 80
f 80 99 81
f 79 100 94
f 79 81 100
f 81 99 100
f 94 100 96
f 83 101 84
f 85 101 83
f 102 101 85
f 85 86 102
f 101 87 84
f 102 87 101
f 88 87 102
f 102 86 88
f 105 103 104
f 91 104 103
f 91 90 104
f 90 106 104
f 106 90 107
f 90 92 107
f 107 92 108
f 92 93 108
f 110 95 109
f 110 108 95
f 108 93 95
f 95 96 109
f 105 111 103
f 103 97 91
f 103 111 97
f 111 112 97
f 112 113 97
f 97 113 98
f 113 114 98
f 98 114 99
f 109 114 110
f 109 100 114
f 100 99 114
f 109 96 100
f 105 115 116
f 104 115 105
f 115 104 117
f 104 106 117
f 117 106 118
f 106 107 118
f 118 107 119
f 107 108 119
f 108 120 119
f 110 120 108
f 116 111 105
f 121 111 116
f 121 122 111
f 111 122 112
f 122 123 112
f 112 123 113
f 123 124 113
f 113 124 114
f 124 110 114
f 120 110 124
f 127 125 126
f 126 125 128
f 127 129 125
f 125 129 128
f 116 130 131
f 115 130 116
f 130 115 132
f 115 117 132
f 132 117 133
f 117 118 133
f 133 118 134
f 118 119 134
f 119 135 134
f 120 135 119
f 131 121 116
f 136 121 131
f 136 137 121
f 121 137 122
f 137 138 122
f 122 138 123
f 138 139 123
f 123 139 124
f 139 120 124
f 135 120 139
f 126 140 127
f 126 128 140
f 140 129 127
f 140 128 129
f 143 141 142
f 131 142 141
f 131 130 142
f 130 144 142
f 144 130 145
f 130 132 145
f 145 132 146
f 132 133 146
f 146 133 147
f 133 134 147
f 134 148 147
f 135 148 134
f 143 149 141
f 141 136 131
f 141 149 136
f 149 150 136
f 150 151 136
f 136 151 137
f 151 152 137
f 137 152 138
f 152 153 138
f 138 153 139
f 153 135 139
f 148 135 153
f 156 154 155
f 155 154 157
f 156 158 154
f 154 158 157
f 142 159 143
f 159 160 161
f 159 142 160
f 142 144 160
f 160 144 162
f 144 145 162
f 162 145 163
f 145 146 163
f 165 147 164
f 165 163 147
f 163 146 147
f 147 148 164
f 159 149 143
f 161 149 159
f 161 166 149
f 166 150 149
f 166 167 150
f 150 167 151
f 167 168 151
f 151 168 152
f 164 168 165
f 164 153 168
f 153 152 168
f 164 148 153
f 155 169 156
f 155 157 169
f 169 158 156
f 169 157 158
f 160 170 161
f 162 170 160
f 171 170 162
f 163 171 162
f 172 171 163
f 163 165 172
f 170 166 161
f 171 166 170
f 167 166 171
f 172 167 171
f 168 167 172
f 172 165 168
f 175 173 174
f 174 173 176
f 178 173 175
f 177 173 178
f 176 177 179
f 173 177 176
f 178 180 177
f 177 180 179
f 174 181 175
f 174 176 181
f 182 175 181
f 178 175 182
f 181 179 182
f 176 179 181
f 182 180 178
f 182 179 180
f 185 183 184
f 184 186 187
f 183 186 184
f 187 186 188
f 185 189 183
f 183 190 186
f 189 190 183
f 186 190 188
f 184 191 185
f 187 191 184
f 192 191 187
f 187 188 192
f 191 189 185
f 192 189 191
f 190 189 192
f 192 188 190
