v -0.28877872228622437 -0.28125 -0.09375
v -0.28125 -0.2851008176803589 -0.09375
v -0.28125 -0.28125 -0.10583414882421494
v -0.28125 -0.28125 -0.08130598813295364
v -0.2897486090660095 -0.28125 0.125
v -0.28125 -0.2902804911136627 0.125
v -0.28125 -0.28125 0.0945143774151802
v -0.29954221844673157 -0.28125 0.15625
v -0.28125 -0.29816263914108276 0.15625
v -0.30254021286964417 -0.28125 0.1875
v -0.28125 -0.2992381155490875 0.1875
v -0.29805904626846313 -0.28125 0.21875
v -0.28125 -0.295505553483963 0.21875
v -0.2841317355632782 -0.28125 0.25
v -0.28125 -0.28389039635658264 0.25
v -0.28125 -0.28125 0.2526826858520508
v -0.2814021408557892 -0.25 -0.125
v -0.28125 -0.25062790513038635 -0.125
v -0.28125 -0.25 -0.12513725459575653
v -0.28404515981674194 -0.25 -0.09375
v -0.28125 -0.25 -0.08655890822410583
v -0.28125 -0.2659737765789032 0.125
v -0.290761798620224 -0.25 0.15625
v -0.28125 -0.25 0.14054232835769653
v -0.29912906885147095 -0.25 0.1875
v -0.29776787757873535 -0.25 0.21875
v -0.28590330481529236 -0.25 0.25
v -0.28125 -0.25 0.2547351121902466
v -0.28125 -0.24953943490982056 -0.125
v -0.28125 -0.2423601746559143 -0.09375
v -0.28125 -0.2229641079902649 0.15625
v -0.2852829396724701 -0.21875 0.1875
v -0.28125 -0.21875 0.16415400803089142
v -0.28125 -0.2209237962961197 0.21875
v -0.28125 -0.21875 0.21078920364379883
v -0.28125 -0.241684228181839 0.25
v -0.28125 -0.21498318016529083 0.1875
v -0.25 -0.29167234897613525 -0.09375
v -0.25 -0.28125 -0.10697775334119797
v -0.27126094698905945 -0.28125 -0.0625
v -0.25 -0.2929527759552002 -0.0625
v -0.2719670832157135 -0.28125 -0.03125
v -0.25 -0.2929251790046692 -0.03125
v -0.27226194739341736 -0.28125 0.0
v -0.25 -0.2932964563369751 0.0
v -0.2718423008918762 -0.28125 0.03125
v -0.25 -0.29410815238952637 0.03125
v -0.27515190839767456 -0.28125 0.0625
v -0.25 -0.2949071526527405 0.0625
v -0.2808782160282135 -0.28125 0.09375
v -0.25 -0.29576775431632996 0.09375
v -0.25 -0.29757991433143616 0.125
v -0.25 -0.30032312870025635 0.15625
v -0.25 -0.30114707350730896 0.1875
v -0.25 -0.2999087870121002 0.21875
v -0.25 -0.2956923544406891 0.25
v -0.25 -0.28125 0.26849111914634705
v -0.2806304395198822 -0.25 -0.125
v -0.25 -0.25 -0.11904005706310272
v -0.27410462498664856 -0.25 -0.0625
v -0.2701733112335205 -0.25 -0.03125
v -0.2685388922691345 -0.25 0.0
v -0.26736176013946533 -0.25 0.03125
v -0.26696711778640747 -0.25 0.0625
v -0.26807716488838196 -0.25 0.09375
v -0.2741769850254059 -0.25 0.125
v -0.25 -0.25 0.27643460035324097
v -0.2695300281047821 -0.21875 -0.09375
v -0.25 -0.21875 -0.11293812841176987
v -0.263783723115921 -0.21875 -0.0625
v -0.25658196210861206 -0.21875 -0.03125
v -0.2519294321537018 -0.21875 0.0
v -0.25 -0.2192411720752716 0.03125
v -0.25 -0.21875 0.02601144276559353
v -0.25 -0.22052155435085297 0.0625
v -0.25 -0.21954700350761414 0.09375
v -0.25383293628692627 -0.21875 0.125
v -0.25 -0.21875 0.10029678791761398
v -0.27685463428497314 -0.21875 0.15625
v -0.2779398560523987 -0.21875 0.21875
v -0.2585882246494293 -0.21875 0.25
v -0.25 -0.21875 0.2567365765571594
v -0.25 -0.2011949121952057 -0.09375
v -0.25 -0.20397622883319855 -0.0625
v -0.25 -0.21195179224014282 -0.03125
v -0.25 -0.21681071817874908 0.0
v -0.25 -0.21651749312877655 0.125
v -0.25 -0.2115439474582672 0.15625
v -0.25 -0.20926028490066528 0.1875
v -0.25 -0.20944064855575562 0.21875
v -0.25 -0.21465334296226501 0.25
v -0.21875 -0.28707194328308105 -0.09375
v -0.21875 -0.28125 -0.09848858416080475
v -0.21875 -0.29558417201042175 -0.0625
v -0.21875 -0.29449865221977234 -0.03125
v -0.21875 -0.29474857449531555 0.0
v -0.21875 -0.2954290211200714 0.03125
v -0.21875 -0.2960297167301178 0.0625
v -0.21875 -0.29677844047546387 0.09375
v -0.21875 -0.29830697178840637 0.125
v -0.21875 -0.30109405517578125 0.15625
v -0.21875 -0.3022260367870331 0.1875
v -0.21875 -0.30189278721809387 0.21875
v -0.21875 -0.3008667230606079 0.25
v -0.21875 -0.28125 0.27634960412979126
v -0.21875 -0.25 -0.10347030311822891
v -0.22745808959007263 -0.25 0.28125
v -0.21875 -0.260406494140625 0.28125
v -0.21875 -0.25 0.2829081416130066
v -0.21910855174064636 -0.21875 -0.09375
v -0.21875 -0.21918843686580658 -0.09375
v -0.21875 -0.21875 -0.09328807890415192
v -0.24637378752231598 -0.21875 0.03125
v -0.2338254600763321 -0.21875 0.0625
v -0.2213878035545349 -0.21875 0.09375
v -0.21875 -0.24535413086414337 0.28125
v -0.21875 -0.21875 0.25998687744140625
v -0.21875 -0.20906810462474823 -0.0625
v -0.21875 -0.2125702202320099 -0.03125
v -0.21875 -0.214909628033638 0.0
v -0.21875 -0.21624743938446045 0.03125
v -0.21875 -0.21763089299201965 0.0625
v -0.21875 -0.2186998873949051 0.09375
v -0.21875 -0.21845270693302155 0.125
v -0.21875 -0.21682937443256378 0.15625
v -0.21875 -0.21468321979045868 0.1875
v -0.21875 -0.21276706457138062 0.21875
v -0.21875 -0.2140839397907257 0.25
v -0.1875 -0.28188660740852356 -0.09375
v -0.1875 -0.28125 -0.09414214640855789
v -0.1875 -0.2992890179157257 -0.0625
v -0.1875 -0.2978155016899109 -0.03125
v -0.1875 -0.2975013554096222 0.0
v -0.1875 -0.2975047826766968 0.03125
v -0.1875 -0.297201007604599 0.0625
v -0.1875 -0.2975168824195862 0.09375
v -0.1875 -0.29910820722579956 0.125
v -0.1875 -0.30164918303489685 0.15625
v -0.1875 -0.30314481258392334 0.1875
v -0.1875 -0.30363553762435913 0.21875
v -0.1875 -0.3040633797645569 0.25
v -0.1875 -0.28125 0.2812230587005615
v -0.1875 -0.25 -0.1003989651799202
v -0.1875 -0.28109660744667053 0.28125
v -0.1875 -0.25 0.28489822149276733
v -0.21487125754356384 -0.21875 -0.09375
v -0.1875 -0.21875 -0.09474261105060577
v -0.21633143723011017 -0.21875 0.09375
v -0.1875 -0.21928873658180237 0.09375
v -0.1875 -0.21875 0.08348371833562851
v -0.21082372963428497 -0.21875 0.125
v -0.1875 -0.21955034136772156 0.125
v -0.1875 -0.21875 0.14907869696617126
v -0.1875 -0.24124494194984436 0.28125
v -0.1875 -0.21875 0.25784116983413696
v -0.1875 -0.2176164835691452 -0.09375
v -0.1875 -0.20668593049049377 -0.0625
v -0.1875 -0.210453599691391 -0.03125
v -0.1875 -0.21316847205162048 0.0
v -0.1875 -0.21525493264198303 0.03125
v -0.1875 -0.21755748987197876 0.0625
v -0.1875 -0.2185000479221344 0.15625
v -0.1875 -0.2163732945919037 0.1875
v -0.1875 -0.2144358605146408 0.21875
v -0.1875 -0.21550019085407257 0.25
v -0.18418145179748535 -0.28125 -0.09375
v -0.15625 -0.30279311537742615 -0.0625
v -0.15625 -0.28125 -0.08933504670858383
v -0.15625 -0.3010152280330658 -0.03125
v -0.15625 -0.29954805970191956 0.0
v -0.15625 -0.2988955080509186 0.03125
v -0.15625 -0.2976507544517517 0.0625
v -0.15625 -0.2975437343120575 0.09375
v -0.15625 -0.29937538504600525 0.125
v -0.15625 -0.30190956592559814 0.15625
v -0.15625 -0.30354809761047363 0.1875
v -0.15625 -0.304430216550827 0.21875
v -0.15625 -0.30590927600860596 0.25
v -0.18733899295330048 -0.28125 0.28125
v -0.15625 -0.2868695855140686 0.28125
v -0.15625 -0.28125 0.28471001982688904
v -0.15625 -0.2664826214313507 -0.09375
v -0.15625 -0.25 -0.0971885472536087
v -0.15625 -0.25 0.2884463369846344
v -0.1672828644514084 -0.21875 -0.09375
v -0.15625 -0.22264955937862396 -0.09375
v -0.15625 -0.21875 -0.09259147197008133
v -0.15625 -0.21898117661476135 0.09375
v -0.15625 -0.21875 0.08931346237659454
v -0.15625 -0.21949473023414612 0.125
v -0.1655661016702652 -0.21875 0.15625
v -0.15625 -0.21885041892528534 0.15625
v -0.15625 -0.21875 0.15788576006889343
v -0.15625 -0.23499871790409088 0.28125
v -0.15625 -0.21875 0.2586311399936676
v -0.15625 -0.20606951415538788 -0.0625
v -0.15625 -0.2099364697933197 -0.03125
v -0.15625 -0.21272625029087067 0.0
v -0.15625 -0.2148934006690979 0.03125
v -0.15625 -0.2172648310661316 0.0625
v -0.15625 -0.21691127121448517 0.1875
v -0.15625 -0.2150818556547165 0.21875
v -0.15625 -0.21573582291603088 0.25
v -0.125 -0.30246880650520325 -0.0625
v -0.125 -0.28125 -0.08577295392751694
v -0.125 -0.3015190362930298 -0.03125
v -0.125 -0.29996082186698914 0.0
v -0.125 -0.29911062121391296 0.03125
v -0.125 -0.29701095819473267 0.0625
v -0.125 -0.29612302780151367 0.09375
v -0.125 -0.2984144985675812 0.125
v -0.125 -0.3014955222606659 0.15625
v -0.125 -0.3036106824874878 0.1875
v -0.125 -0.30497583746910095 0.21875
v -0.125 -0.3066196143627167 0.25
v -0.125 -0.29151982069015503 0.28125
v -0.125 -0.28125 0.28789469599723816
v -0.12694978713989258 -0.25 -0.09375
v -0.125 -0.25 -0.09353404492139816
v -0.125 -0.25 0.29130110144615173
v -0.125 -0.21875 -0.08834496885538101
v -0.125 -0.21948814392089844 0.09375
v -0.125 -0.21875 0.08090266585350037
v -0.125 -0.22049911320209503 0.125
v -0.125 -0.22037643194198608 0.15625
v -0.125 -0.21875 0.18490245938301086
v -0.125 -0.23081748187541962 0.28125
v -0.125 -0.21875 0.2583617568016052
v -0.125 -0.20694515109062195 -0.0625
v -0.125 -0.2110549658536911 -0.03125
v -0.125 -0.2134580910205841 0.0
v -0.125 -0.21534860134124756 0.03125
v -0.125 -0.21765951812267303 0.0625
v -0.125 -0.21859824657440186 0.1875
v -0.125 -0.2165459394454956 0.21875
v -0.125 -0.21645866334438324 0.25
v -0.09375 -0.30292844772338867 -0.0625
v -0.09375 -0.28125 -0.08421891182661057
v -0.09375 -0.30104300379753113 -0.03125
v -0.09375 -0.29949232935905457 0.0
v -0.09375 -0.2992253601551056 0.03125
v -0.09375 -0.29744839668273926 0.0625
v -0.09375 -0.2959296703338623 0.09375
v -0.09375 -0.2981107831001282 0.125
v -0.09375 -0.30197978019714355 0.15625
v -0.09375 -0.3044028580188751 0.1875
v -0.09375 -0.30543267726898193 0.21875
v -0.09375 -0.3076789677143097 0.25
v -0.09375 -0.29595306515693665 0.28125
v -0.09375 -0.28125 0.29092270135879517
v -0.09375 -0.25 -0.09227713942527771
v -0.09375 -0.25 0.2944566309452057
v -0.09375 -0.21875 -0.08838026225566864
v -0.09591726213693619 -0.21875 0.0625
v -0.09375 -0.21882924437522888 0.0625
v -0.09375 -0.21875 0.061491504311561584
v -0.09375 -0.22046707570552826 0.09375
v -0.09375 -0.22139599919319153 0.125
v -0.09375 -0.22111356258392334 0.15625
v -0.11963018029928207 -0.21875 0.1875
v -0.09375 -0.2194538414478302 0.1875
v -0.09375 -0.21875 0.19798044860363007
v -0.09375 -0.22604043781757355 0.28125
v -0.09375 -0.21875 0.2612667977809906
v -0.09375 -0.20717912912368774 -0.0625
v -0.09375 -0.2118890881538391 -0.03125
v -0.09375 -0.21433834731578827 0.0
v -0.09375 -0.21633528172969818 0.03125
v -0.09375 -0.21729551255702972 0.21875
v -0.09375 -0.21642792224884033 0.25
v -0.0625 -0.2996011972427368 -0.0625
v -0.0625 -0.28125 -0.0824517160654068
v -0.0625 -0.29883599281311035 -0.03125
v -0.0625 -0.29932671785354614 0.0
v -0.0625 -0.3002883493900299 0.03125
v -0.0625 -0.3005525469779968 0.0625
v -0.0625 -0.29870152473449707 0.09375
v -0.0625 -0.30036017298698425 0.125
v -0.0625 -0.30422088503837585 0.15625
v -0.0625 -0.3061411380767822 0.1875
v -0.0625 -0.30613988637924194 0.21875
v -0.0625 -0.3083428144454956 0.25
v -0.0625 -0.29977312684059143 0.28125
v -0.0625 -0.28125 0.2937205135822296
v -0.0625 -0.25 -0.09178280830383301
v -0.0625 -0.25 0.29785430431365967
v -0.0625 -0.21875 -0.08877327293157578
v -0.0625 -0.21983696520328522 0.0625
v -0.0625 -0.21875 0.04646356776356697
v -0.0625 -0.22117993235588074 0.09375
v -0.0625 -0.22150112688541412 0.125
v -0.0625 -0.2207908183336258 0.15625
v -0.0625 -0.21893267333507538 0.1875
v -0.0625 -0.21875 0.1897607147693634
v -0.0625 -0.2204844057559967 0.28125
v -0.0625 -0.21875 0.2744167447090149
v -0.0625 -0.20806734263896942 -0.0625
v -0.0625 -0.2136303037405014 -0.03125
v -0.0625 -0.2160167098045349 0.0
v -0.0625 -0.21768631041049957 0.03125
v -0.0625 -0.21627695858478546 0.21875
v -0.0625 -0.2151462882757187 0.25
v -0.03125 -0.3000486493110657 -0.0625
v -0.03125 -0.28125 -0.08380821347236633
v -0.03125 -0.3002222776412964 -0.03125
v -0.03125 -0.3023914098739624 0.0
v -0.03125 -0.30452486872673035 0.03125
v -0.03125 -0.30656906962394714 0.0625
v -0.03125 -0.30220359563827515 0.09375
v -0.03125 -0.29999488592147827 0.125
v -0.03125 -0.3021690249443054 0.15625
v -0.03125 -0.3054179549217224 0.1875
v -0.03125 -0.30631041526794434 0.21875
v -0.03125 -0.30886924266815186 0.25
v -0.03125 -0.3000713884830475 0.28125
v -0.03125 -0.28125 0.2939358651638031
v -0.03125 -0.25 -0.09374333918094635
v -0.03125 -0.25 0.2992875576019287
v -0.04685773700475693 -0.21875 -0.09375
v -0.03125 -0.2498851865530014 -0.09375
v -0.03125 -0.21875 -0.09586966037750244
v -0.04379059001803398 -0.21875 0.03125
v -0.03125 -0.21943752467632294 0.03125
v -0.03125 -0.21875 0.014802622608840466
v -0.03125 -0.22121566534042358 0.0625
v -0.03125 -0.22300711274147034 0.09375
v -0.03125 -0.22286061942577362 0.125
v -0.03125 -0.2206617295742035 0.15625
v -0.05328182131052017 -0.21875 0.1875
v -0.03125 -0.21875 0.18170562386512756
v -0.04284672439098358 -0.21875 0.28125
v -0.03125 -0.21875 0.2822344899177551
v -0.03125 -0.21594253182411194 -0.09375
v -0.03125 -0.20790614187717438 -0.0625
v -0.03125 -0.21584369242191315 -0.03125
v -0.03125 -0.21811285614967346 0.0
v -0.03125 -0.2182808816432953 0.1875
v -0.03125 -0.2157607078552246 0.21875
v -0.03125 -0.21457439661026 0.25
v -0.03125 -0.21806225180625916 0.28125
v 0.0 -0.3063424229621887 -0.0625
v 0.0 -0.28125 -0.08687028288841248
v 0.0 -0.3053184449672699 -0.03125
v 0.0 -0.30580171942710876 0.0
v 0.0 -0.3058931827545166 0.03125
v 0.0 -0.3062323331832886 0.0625
v 0.0 -0.2998383045196533 0.09375
v 0.0 -0.29133883118629456 0.125
v 0.0 -0.28888025879859924 0.15625
v 0.0 -0.295813649892807 0.1875
v 0.0 -0.30208098888397217 0.21875
v 0.0 -0.3083258271217346 0.25
v 0.0 -0.29776105284690857 0.28125
v 0.0 -0.28125 0.2918171286582947
v -0.031118305400013924 -0.25 -0.09375
v 0.0 -0.25700998306274414 -0.09375
v 0.0 -0.25 -0.09550005942583084
v 0.0 -0.25 0.2980045974254608
v 0.0 -0.21875 -0.09835056215524673
v 0.0 -0.2202891707420349 0.03125
v 0.0 -0.21875 0.008823711425065994
v 0.0 -0.22457386553287506 0.0625
v 0.0 -0.2262715995311737 0.09375
v 0.0 -0.22689464688301086 0.125
v 0.0 -0.22613650560379028 0.15625
v -0.027342235669493675 -0.21875 0.1875
v 0.0 -0.22202132642269135 0.1875
v 0.0 -0.21875 0.20699544250965118
v 0.0 -0.21875 0.28166720271110535
v 0.0 -0.2126886248588562 -0.09375
v 0.0 -0.20949658751487732 -0.0625
v 0.0 -0.21834203600883484 -0.03125
v 0.0 -0.21815116703510284 0.0
v 0.0 -0.2167549729347229 0.21875
v 0.0 -0.21468085050582886 0.25
v 0.0 -0.2184436321258545 0.28125
v 0.03125 -0.3078848421573639 -0.0625
v 0.03125 -0.28125 -0.08782945573329926
v 0.03125 -0.3070332705974579 -0.03125
v 0.03125 -0.30757224559783936 0.0
v 0.03125 -0.3087788224220276 0.03125
v 0.03125 -0.30388718843460083 0.0625
v 0.03125 -0.2956862449645996 0.09375
v 0.03125 -0.29127994179725647 0.125
v 0.021867720410227776 -0.28125 0.15625
v 0.03125 -0.28125 0.14903712272644043
v 0.03125 -0.28356608748435974 0.1875
v 0.03125 -0.28125 0.17666342854499817
v 0.03125 -0.2965652346611023 0.21875
v 0.03125 -0.3091695308685303 0.25
v 0.03125 -0.2964649498462677 0.28125
v 0.03125 -0.28125 0.2898883521556854
v 0.03125 -0.2578510046005249 -0.09375
v 0.03125 -0.25 -0.09556224197149277
v 0.03125 -0.2782370150089264 0.15625
v 0.03125 -0.25 0.29514649510383606
v 0.03125 -0.21875 -0.09761346131563187
v 0.007510646712034941 -0.21875 -0.03125
v 0.03125 -0.22008870542049408 -0.03125
v 0.03125 -0.21875 -0.03602409362792969
v 0.004912147764116526 -0.21875 0.0
v 0.03125 -0.22209766507148743 0.0
v 0.03125 -0.22484233975410461 0.03125
v 0.03125 -0.22461871802806854 0.0625
v 0.03125 -0.2245718538761139 0.09375
v 0.03125 -0.22472630441188812 0.125
v 0.03125 -0.22691774368286133 0.15625
v 0.03125 -0.22131408751010895 0.1875
v 0.0187081228941679 -0.21875 0.21875
v 0.03125 -0.2199372947216034 0.21875
v 0.03125 -0.21875 0.22777922451496124
v 0.005957026034593582 -0.21875 0.28125
v 0.03125 -0.2210957109928131 0.28125
v 0.03125 -0.21875 0.2730959355831146
v 0.03125 -0.2137831747531891 -0.09375
v 0.03125 -0.21153227984905243 -0.0625
v 0.03125 -0.2153697907924652 0.25
v 0.0625 -0.3084615468978882 -0.0625
v 0.0625 -0.28125 -0.08717674016952515
v 0.0625 -0.30635133385658264 -0.03125
v 0.0625 -0.30511537194252014 0.0
v 0.0625 -0.30505362153053284 0.03125
v 0.0625 -0.30414965748786926 0.0625
v 0.0625 -0.2938992381095886 0.09375
v 0.05506100505590439 -0.28125 0.125
v 0.0625 -0.28125 0.11835870146751404
v 0.05089453235268593 -0.28125 0.1875
v 0.0625 -0.2912203073501587 0.21875
v 0.0625 -0.28125 0.19025230407714844
v 0.0625 -0.3079293370246887 0.25
v 0.0625 -0.29519450664520264 0.28125
v 0.0625 -0.28125 0.2886670231819153
v 0.0625 -0.25741538405418396 -0.09375
v 0.0625 -0.25 -0.09561002999544144
v 0.05912242457270622 -0.25 0.09375
v 0.0625 -0.25901511311531067 0.09375
v 0.0625 -0.25 0.08690490573644638
v 0.0625 -0.2760395109653473 0.125
v 0.0625 -0.25 0.10097299516201019
v 0.0625 -0.2798536419868469 0.15625
v 0.0625 -0.2802659869194031 0.1875
v 0.0625 -0.25 0.2916903495788574
v 0.0625 -0.21875 -0.09874216467142105
v 0.0625 -0.22061875462532043 -0.03125
v 0.0625 -0.21875 -0.03650009259581566
v 0.0625 -0.22213564813137054 0.0
v 0.0625 -0.23117052018642426 0.03125
v 0.0625 -0.23652730882167816 0.0625
v 0.0625 -0.23114734888076782 0.125
v 0.0625 -0.23020297288894653 0.15625
v 0.0625 -0.2297559231519699 0.1875
v 0.0625 -0.2252730280160904 0.21875
v 0.0625 -0.21875 0.24688102304935455
v 0.0625 -0.22619624435901642 0.28125
v 0.0625 -0.21875 0.2568267583847046
v 0.0625 -0.2121703177690506 -0.09375
v 0.0625 -0.20935384929180145 -0.0625
v 0.0625 -0.21785584092140198 0.25
v 0.09375 -0.30949506163597107 -0.0625
v 0.09375 -0.28125 -0.08876985311508179
v 0.09375 -0.304893434047699 -0.03125
v 0.09375 -0.2968197762966156 0.0
v 0.09375 -0.2979823350906372 0.03125
v 0.09375 -0.30508166551589966 0.0625
v 0.09375 -0.28877460956573486 0.09375
v 0.06533898413181305 -0.28125 0.125
v 0.09375 -0.2964824140071869 0.125
v 0.06388939917087555 -0.28125 0.15625
v 0.09375 -0.29751843214035034 0.15625
v 0.06358315050601959 -0.28125 0.1875
v 0.09375 -0.2972168028354645 0.1875
v 0.09375 -0.29888322949409485 0.21875
v 0.09375 -0.30671989917755127 0.25
v 0.09375 -0.29051506519317627 0.28125
v 0.09375 -0.28125 0.2859947681427002
v 0.09375 -0.2621835768222809 -0.09375
v 0.09375 -0.25 -0.09647132456302643
v 0.06702679395675659 -0.25 0.09375
v 0.09375 -0.25 0.28794917464256287
v 0.09375 -0.21875 -0.10088256746530533
v 0.0772143229842186 -0.21875 -0.03125
v 0.09375 -0.2328570932149887 0.0
v 0.09375 -0.21875 -0.027455851435661316
v 0.09375 -0.23381836712360382 0.03125
v 0.09375 -0.2395099401473999 0.0625
v 0.09375 -0.2369024157524109 0.09375
v 0.09375 -0.23233726620674133 0.125
v 0.09375 -0.24118810892105103 0.15625
v 0.09375 -0.2257010042667389 0.1875
v 0.09375 -0.23312599956989288 0.21875
v 0.09375 -0.21875 0.24999584257602692
v 0.09375 -0.22643089294433594 0.28125
v 0.09375 -0.21875 0.2500433027744293
v 0.09375 -0.20883983373641968 -0.09375
v 0.09375 -0.20557910203933716 -0.0625
v 0.09375 -0.2163947969675064 -0.03125
v 0.09375 -0.2187473177909851 0.25
v 0.125 -0.3100520968437195 -0.0625
v 0.125 -0.28125 -0.09125828742980957
v 0.125 -0.3059530556201935 -0.03125
v 0.125 -0.2904995381832123 0.0
v 0.125 -0.29504629969596863 0.03125
v 0.125 -0.30799445509910583 0.0625
v 0.125 -0.30280983448028564 0.09375
v 0.125 -0.29742854833602905 0.125
v 0.125 -0.29993388056755066 0.15625
v 0.125 -0.2978871166706085 0.1875
v 0.125 -0.29504871368408203 0.21875
v 0.125 -0.306848406791687 0.25
v 0.125 -0.28313565254211426 0.28125
v 0.125 -0.28125 0.2821803390979767
v 0.125 -0.26992133259773254 -0.09375
v 0.125 -0.25 -0.09747567027807236
v 0.125 -0.25 0.2860530614852905
v 0.125 -0.21875 -0.10356273502111435
v 0.125 -0.22651790082454681 0.0
v 0.125 -0.21875 -0.01570410281419754
v 0.125 -0.23723895847797394 0.03125
v 0.125 -0.23649759590625763 0.0625
v 0.125 -0.2458217442035675 0.09375
v 0.125 -0.24146510660648346 0.125
v 0.125 -0.23361702263355255 0.15625
v 0.125 -0.2276822328567505 0.1875
v 0.125 -0.22791127860546112 0.21875
v 0.125 -0.21875 0.2416219413280487
v 0.11152870208024979 -0.21875 0.28125
v 0.125 -0.21875 0.2831604778766632
v 0.125 -0.20482465624809265 -0.09375
v 0.125 -0.2015874683856964 -0.0625
v 0.125 -0.21021704375743866 -0.03125
v 0.125 -0.21509546041488647 0.25
v 0.125 -0.2170735001564026 0.28125
v 0.15314514935016632 -0.40625 0.125
v 0.15625 -0.40736863017082214 0.125
v 0.15625 -0.40625 0.12149927765130997
v 0.14928536117076874 -0.40625 0.15625
v 0.15625 -0.4095306694507599 0.15625
v 0.15625 -0.40625 0.1694045513868332
v 0.15625 -0.3987916111946106 0.125
v 0.15625 -0.39755696058273315 0.15625
v 0.15590761601924896 -0.3125 -0.0625
v 0.15625 -0.31252241134643555 -0.0625
v 0.15625 -0.3125 -0.06254412978887558
v 0.15625 -0.3125 -0.06232893094420433
v 0.15373609960079193 -0.28125 -0.09375
v 0.15625 -0.28160178661346436 -0.09375
v 0.15625 -0.28125 -0.0939306989312172
v 0.15625 -0.30788561701774597 -0.03125
v 0.15625 -0.2936651408672333 0.0
v 0.15625 -0.2820955216884613 0.03125
v 0.1408846378326416 -0.28125 0.0625
v 0.15625 -0.28125 0.032381586730480194
v 0.15625 -0.2909153401851654 0.09375
v 0.15625 -0.28125 0.0767471045255661
v 0.15625 -0.28986576199531555 0.125
v 0.15625 -0.2899684011936188 0.15625
v 0.15625 -0.295785516500473 0.1875
v 0.15625 -0.2984394133090973 0.21875
v 0.15625 -0.31169602274894714 0.25
v 0.13277487456798553 -0.28125 0.28125
v 0.15625 -0.28125 0.27761659026145935
v 0.15625 -0.25 -0.09906060993671417
v 0.15625 -0.2720700204372406 0.0625
v 0.15625 -0.2665999233722687 0.28125
v 0.15625 -0.25 0.2849540412425995
v 0.15625 -0.21875 -0.10695015639066696
v 0.15350273251533508 -0.21875 0.0
v 0.15625 -0.24113337695598602 0.03125
v 0.15625 -0.21875 0.0012777821393683553
v 0.15625 -0.23529168963432312 0.0625
v 0.15625 -0.2443673461675644 0.09375
v 0.15625 -0.2339463084936142 0.125
v 0.15625 -0.2346075028181076 0.15625
v 0.15625 -0.2244439423084259 0.1875
v 0.15625 -0.2245248407125473 0.21875
v 0.15625 -0.21875 0.23142503201961517
v 0.15625 -0.21875 0.2920837104320526
v 0.15625 -0.20043504238128662 -0.09375
v 0.15625 -0.19912724196910858 -0.0625
v 0.15625 -0.20429793000221252 -0.03125
v 0.15625 -0.21718668937683105 0.0
v 0.15625 -0.21029244363307953 0.25
v 0.15625 -0.20812803506851196 0.28125
v 0.1875 -0.40809717774391174 0.125
v 0.1875 -0.40625 0.12091197073459625
v 0.18677514791488647 -0.40625 0.15625
v 0.1875 -0.40625 0.1548425555229187
v 0.17951437830924988 -0.375 0.125
v 0.1875 -0.375 0.11091329902410507
v 0.1875 -0.375 0.1344498097896576
v 0.1875 -0.37301233410835266 0.125
v 0.1875 -0.31310850381851196 -0.0625
v 0.1875 -0.3125 -0.06382369250059128
v 0.1875 -0.3125 -0.056254900991916656
v 0.1875 -0.28788119554519653 -0.09375
v 0.1875 -0.28125 -0.09725403040647507
v 0.1875 -0.3098588287830353 -0.03125
v 0.1875 -0.29827582836151123 0.0
v 0.1875 -0.2848350405693054 0.03125
v 0.1875 -0.28125 0.03615961968898773
v 0.1875 -0.28172731399536133 0.09375
v 0.1875 -0.28125 0.09281574189662933
v 0.18581944704055786 -0.28125 0.125
v 0.1875 -0.28125 0.10422109812498093
v 0.1875 -0.288882315158844 0.15625
v 0.1875 -0.28125 0.12692183256149292
v 0.1875 -0.2893672585487366 0.1875
v 0.1875 -0.30242404341697693 0.21875
v 0.1875 -0.3091862201690674 0.25
v 0.1875 -0.28125 0.2773301899433136
v 0.1875 -0.25 -0.10040996223688126
v 0.1875 -0.2664189338684082 0.0625
v 0.1875 -0.2802058458328247 0.125
v 0.1875 -0.2684054672718048 0.28125
v 0.1875 -0.25 0.28562870621681213
v 0.1875 -0.21875 -0.10994472354650497
v 0.1875 -0.22904494404792786 0.03125
v 0.1875 -0.21875 0.01690685749053955
v 0.1875 -0.23232950270175934 0.0625
v 0.1875 -0.24133612215518951 0.09375
v 0.1875 -0.23238758742809296 0.125
v 0.1875 -0.22545504570007324 0.15625
v 0.17764689028263092 -0.21875 0.1875
v 0.1875 -0.21875 0.17843961715698242
v 0.17271637916564941 -0.21875 0.21875
v 0.1875 -0.21875 0.2959161400794983
v 0.1875 -0.1963309943675995 -0.09375
v 0.1875 -0.19686028361320496 -0.0625
v 0.1875 -0.20136244595050812 -0.03125
v 0.1875 -0.20449067652225494 0.0
v 0.18726663291454315 -0.1875 0.15625
v 0.1875 -0.18846799433231354 0.15625
v 0.1875 -0.1875 0.155454620718956
v 0.1875 -0.21079841256141663 0.1875
v 0.1875 -0.1875 0.15706324577331543
v 0.1875 -0.21330949664115906 0.21875
v 0.1875 -0.2033805400133133 0.25
v 0.1875 -0.20080582797527313 0.28125
v 0.1875 -0.18713250756263733 0.15625
v 0.19224774837493896 -0.40625 0.125
v 0.19292128086090088 -0.375 0.125
v 0.19121891260147095 -0.3125 -0.0625
v 0.21875 -0.28884157538414 -0.09375
v 0.21875 -0.28125 -0.0978580117225647
v 0.21875 -0.3081301748752594 -0.0625
v 0.21875 -0.301986962556839 -0.03125
v 0.21875 -0.2876683175563812 0.0
v 0.19605161249637604 -0.28125 0.03125
v 0.21875 -0.28125 0.010599412024021149
v 0.18826419115066528 -0.28125 0.09375
v 0.21875 -0.282666951417923 0.15625
v 0.21875 -0.28125 0.1490127295255661
v 0.21875 -0.2845982015132904 0.1875
v 0.21875 -0.3038129508495331 0.21875
v 0.21875 -0.29643794894218445 0.25
v 0.21875 -0.28125 0.27816373109817505
v 0.21875 -0.25 -0.10221309959888458
v 0.21875 -0.2684311866760254 0.03125
v 0.21875 -0.26839447021484375 0.0625
v 0.2066832184791565 -0.25 0.09375
v 0.21875 -0.25 0.08213887363672256
v 0.21875 -0.2722059190273285 0.125
v 0.21875 -0.25 0.10443154722452164
v 0.21875 -0.27644428610801697 0.28125
v 0.21875 -0.25 0.2880586087703705
v 0.21875 -0.21875 -0.11232290416955948
v 0.2033669501543045 -0.21875 0.03125
v 0.21875 -0.22163814306259155 0.0625
v 0.21875 -0.21875 0.05890826880931854
v 0.21875 -0.22890415787696838 0.125
v 0.20534460246562958 -0.21875 0.15625
v 0.21875 -0.21875 0.13854356110095978
v 0.20717018842697144 -0.21875 0.1875
v 0.21875 -0.22242188453674316 0.1875
v 0.21875 -0.21875 0.17992466688156128
v 0.20254364609718323 -0.21875 0.21875
v 0.21875 -0.22726429998874664 0.21875
v 0.21875 -0.21875 0.22679266333580017
v 0.21875 -0.21875 0.29508471488952637
v 0.21875 -0.19178520143032074 -0.09375
v 0.21875 -0.1954106092453003 -0.0625
v 0.21875 -0.19842244684696198 -0.03125
v 0.21875 -0.19592434167861938 0.0
v 0.21875 -0.19965213537216187 0.03125
v 0.2172124832868576 -0.1875 0.0625
v 0.21875 -0.20511025190353394 0.0625
v 0.21875 -0.1875 0.055983006954193115
v 0.2140023410320282 -0.1875 0.09375
v 0.21875 -0.1969715803861618 0.09375
v 0.2085476517677307 -0.1875 0.125
v 0.21875 -0.20337486267089844 0.125
v 0.20874708890914917 -0.1875 0.1875
v 0.21875 -0.2094026356935501 0.1875
v 0.21875 -0.1875 0.19780534505844116
v 0.21875 -0.19614998996257782 0.25
v 0.21875 -0.19719435274600983 0.28125
v 0.21875 -0.1853465586900711 0.0625
v 0.21875 -0.1802980750799179 0.09375
v 0.21875 -0.18028736114501953 0.125
v 0.21875 -0.17213669419288635 0.15625
v 0.21875 -0.17704342305660248 0.1875
v 0.25 -0.2835002541542053 -0.09375
v 0.25 -0.28125 -0.09515605121850967
v 0.25 -0.30072474479675293 -0.0625
v 0.25 -0.295316606760025 -0.03125
v 0.25 -0.2875232398509979 0.0
v 0.25 -0.28125 0.017205798998475075
v 0.25 -0.29089075326919556 0.15625
v 0.25 -0.28125 0.14271089434623718
v 0.25 -0.29430943727493286 0.1875
v 0.25 -0.2922278046607971 0.21875
v 0.25 -0.2933654487133026 0.25
v 0.22700515389442444 -0.28125 0.28125
v 0.25 -0.28507906198501587 0.28125
v 0.25 -0.28125 0.2850610017776489
v 0.25 -0.25 -0.10096868127584457
v 0.25 -0.2737768888473511 0.03125
v 0.25 -0.2608519196510315 0.0625
v 0.23716920614242554 -0.25 0.09375
v 0.25 -0.2559185028076172 0.09375
v 0.25 -0.26681339740753174 0.125
v 0.25 -0.25 0.29717913269996643
v 0.25 -0.21875 -0.10937408357858658
v 0.23152875900268555 -0.21875 0.0625
v 0.25 -0.23345141112804413 0.09375
v 0.25 -0.21875 0.07146524637937546
v 0.24236825108528137 -0.21875 0.125
v 0.25 -0.21875 0.11480850726366043
v 0.22754016518592834 -0.21875 0.1875
v 0.22799544036388397 -0.21875 0.21875
v 0.25 -0.21875 0.2982434928417206
v 0.25 -0.1903267502784729 -0.09375
v 0.25 -0.1963225156068802 -0.0625
v 0.25 -0.20045636594295502 -0.03125
v 0.25 -0.20122960209846497 0.0
v 0.25 -0.2059641182422638 0.03125
v 0.22029738128185272 -0.1875 0.0625
v 0.25 -0.21702779829502106 0.0625
v 0.22328360378742218 -0.1875 0.09375
v 0.22405195236206055 -0.1875 0.125
v 0.25 -0.21687178313732147 0.125
v 0.2321050763130188 -0.1875 0.15625
v 0.25 -0.2117837816476822 0.15625
v 0.25 -0.1875 0.18574310839176178
v 0.23835976421833038 -0.1875 0.21875
v 0.23193460702896118 -0.1875 0.25
v 0.24384361505508423 -0.1875 0.28125
v 0.25 -0.1875 0.2835586965084076
v 0.25 -0.1857231855392456 0.1875
v 0.25 -0.17596937716007233 0.21875
v 0.25 -0.17688165605068207 0.25
v 0.25 -0.18554577231407166 0.28125
v 0.28125 -0.28217262029647827 -0.09375
v 0.28125 -0.28125 -0.09442004561424255
v 0.28125 -0.297148734331131 -0.0625
v 0.28125 -0.2947385907173157 -0.03125
v 0.28125 -0.2948857545852661 0.0
v 0.2584396302700043 -0.28125 0.03125
v 0.28125 -0.29296550154685974 0.03125
v 0.26571470499038696 -0.28125 0.0625
v 0.28125 -0.2925839126110077 0.0625
v 0.2669769525527954 -0.28125 0.09375
v 0.28125 -0.2925354838371277 0.09375
v 0.26141712069511414 -0.28125 0.125
v 0.28125 -0.29342272877693176 0.125
v 0.28125 -0.2944321036338806 0.15625
v 0.28125 -0.29154103994369507 0.1875
v 0.28125 -0.29144614934921265 0.21875
v 0.28125 -0.2910913825035095 0.25
v 0.28125 -0.2880534827709198 0.28125
v 0.28125 -0.28125 0.29094618558883667
v 0.28125 -0.25 -0.10143201798200607
v 0.28125 -0.25 0.30756908655166626
v 0.28125 -0.21875 -0.1052384078502655
v 0.25844812393188477 -0.21875 0.09375
v 0.28125 -0.21875 0.30844253301620483
v 0.28125 -0.18968449532985687 -0.09375
v 0.28125 -0.20451471209526062 -0.0625
v 0.28125 -0.21116185188293457 -0.03125
v 0.28125 -0.2104390412569046 0.0
v 0.28125 -0.2122071087360382 0.03125
v 0.28125 -0.2127617746591568 0.0625
v 0.28125 -0.2100108414888382 0.09375
v 0.28125 -0.20191384851932526 0.125
v 0.28125 -0.19037771224975586 0.15625
v 0.28125 -0.1875 0.16380035877227783
v 0.28125 -0.1875 0.30372074246406555
v 0.28125 -0.178572416305542 0.1875
v 0.28125 -0.17037563025951385 0.21875
v 0.28125 -0.16663458943367004 0.25
v 0.28125 -0.1669759303331375 0.28125
v 0.2837796211242676 -0.28125 -0.09375
v 0.3125 -0.28517305850982666 -0.0625
v 0.3125 -0.28125 -0.07203978300094604
v 0.3125 -0.2827576696872711 -0.03125
v 0.3108102083206177 -0.28125 0.0
v 0.3125 -0.28125 -0.013173240236938
v 0.3038022518157959 -0.28125 0.03125
v 0.29937678575515747 -0.28125 0.0625
v 0.29785779118537903 -0.28125 0.09375
v 0.295752614736557 -0.28125 0.125
v 0.29417943954467773 -0.28125 0.15625
v 0.291319340467453 -0.28125 0.1875
v 0.29163509607315063 -0.28125 0.21875
v 0.2915981709957123 -0.28125 0.25
v 0.28876250982284546 -0.28125 0.28125
v 0.3125 -0.2529085874557495 -0.09375
v 0.3125 -0.25 -0.09454093128442764
v 0.3125 -0.2774292528629303 0.0
v 0.3125 -0.25531134009361267 0.03125
v 0.3102065622806549 -0.25 0.0625
v 0.3125 -0.25 0.04130570590496063
v 0.308835506439209 -0.25 0.09375
v 0.3067731261253357 -0.25 0.125
v 0.3038872182369232 -0.25 0.15625
v 0.3013921082019806 -0.25 0.1875
v 0.30005401372909546 -0.25 0.21875
v 0.30195164680480957 -0.25 0.25
v 0.30173245072364807 -0.25 0.28125
v 0.3099921643733978 -0.21875 -0.09375
v 0.3125 -0.2368895709514618 -0.09375
v 0.2955799996852875 -0.21875 -0.0625
v 0.3125 -0.23371455073356628 -0.0625
v 0.29353636503219604 -0.21875 -0.03125
v 0.3125 -0.23371613025665283 -0.03125
v 0.29532381892204285 -0.21875 0.0
v 0.3125 -0.23697443306446075 0.0
v 0.293544739484787 -0.21875 0.03125
v 0.3125 -0.24686339497566223 0.03125
v 0.2920800745487213 -0.21875 0.0625
v 0.2938684821128845 -0.21875 0.09375
v 0.29734867811203003 -0.21875 0.125
v 0.29907920956611633 -0.21875 0.15625
v 0.29870539903640747 -0.21875 0.1875
v 0.29904213547706604 -0.21875 0.21875
v 0.30300819873809814 -0.21875 0.25
v 0.30432209372520447 -0.21875 0.28125
v 0.28823673725128174 -0.1875 0.1875
v 0.2937282919883728 -0.1875 0.21875
v 0.29912105202674866 -0.1875 0.25
v 0.3023127019405365 -0.1875 0.28125
v 0.3161497116088867 -0.28125 -0.0625
v 0.3139173686504364 -0.28125 -0.03125
v 0.3134859800338745 -0.25 -0.09375
v 0.32259994745254517 -0.25 -0.0625
v 0.32225966453552246 -0.25 -0.03125
v 0.3191729485988617 -0.25 0.0
v 0.31374529004096985 -0.25 0.03125
f 3 1 2
f 2 1 4
f 7 5 6
f 6 8 9
f 5 8 6
f 9 10 11
f 8 10 9
f 11 12 13
f 10 12 11
f 13 14 15
f 12 14 13
f 15 14 16
f 19 17 18
f 18 1 3
f 18 17 1
f 17 20 1
f 4 20 21
f 1 20 4
f 7 22 5
f 24 5 22
f 24 23 5
f 23 8 5
f 8 23 10
f 10 23 25
f 10 25 12
f 12 25 26
f 12 26 14
f 14 26 27
f 16 27 28
f 14 27 16
f 19 29 17
f 17 30 20
f 29 30 17
f 20 30 21
f 24 31 23
f 33 23 31
f 33 32 23
f 32 25 23
f 34 32 35
f 34 26 32
f 26 25 32
f 26 36 27
f 34 36 26
f 27 36 28
f 33 37 32
f 32 37 35
f 3 38 39
f 2 38 3
f 40 2 4
f 40 41 2
f 41 38 2
f 41 42 43
f 40 42 41
f 43 44 45
f 42 44 43
f 45 46 47
f 44 46 45
f 47 48 49
f 46 48 47
f 49 50 51
f 48 50 49
f 7 51 50
f 7 6 51
f 6 52 51
f 52 6 53
f 6 9 53
f 53 9 54
f 9 11 54
f 54 11 55
f 11 13 55
f 55 13 56
f 13 15 56
f 15 57 56
f 16 57 15
f 18 58 19
f 58 18 3
f 58 3 59
f 59 3 39
f 60 40 4
f 21 60 4
f 40 60 42
f 42 60 61
f 42 61 44
f 44 61 62
f 44 62 46
f 46 62 63
f 46 63 48
f 48 63 64
f 48 64 50
f 50 64 65
f 22 7 50
f 22 50 66
f 66 50 65
f 22 66 24
f 57 16 67
f 67 16 28
f 58 29 19
f 58 30 29
f 58 69 30
f 58 59 69
f 68 30 69
f 21 30 68
f 21 68 60
f 60 68 70
f 60 70 61
f 61 70 71
f 61 71 62
f 62 71 72
f 73 72 74
f 73 63 72
f 63 62 72
f 63 75 64
f 73 75 63
f 64 76 65
f 75 76 64
f 78 65 76
f 78 77 65
f 77 66 65
f 31 24 66
f 31 66 79
f 79 66 77
f 31 79 33
f 34 35 80
f 36 34 80
f 81 36 80
f 81 28 36
f 81 82 28
f 82 67 28
f 69 83 68
f 68 84 70
f 83 84 68
f 70 85 71
f 84 85 70
f 71 86 72
f 85 86 71
f 72 86 74
f 78 87 77
f 77 88 79
f 87 88 77
f 79 37 33
f 79 88 37
f 88 89 37
f 35 90 80
f 35 37 90
f 37 89 90
f 80 91 81
f 90 91 80
f 81 91 82
f 39 92 93
f 38 92 39
f 92 38 94
f 38 41 94
f 94 41 95
f 41 43 95
f 95 43 96
f 43 45 96
f 96 45 97
f 45 47 97
f 97 47 98
f 47 49 98
f 98 49 99
f 49 51 99
f 99 51 100
f 51 52 100
f 100 52 101
f 52 53 101
f 101 53 102
f 53 54 102
f 102 54 103
f 54 55 103
f 103 55 104
f 55 56 104
f 56 105 104
f 57 105 56
f 93 106 39
f 106 59 39
f 107 108 105
f 107 105 67
f 67 105 57
f 108 107 109
f 110 106 111
f 110 69 106
f 69 59 106
f 111 112 110
f 73 74 113
f 75 73 113
f 114 75 113
f 76 75 114
f 115 76 114
f 76 115 78
f 116 107 67
f 116 67 117
f 117 67 82
f 107 116 109
f 110 83 69
f 112 83 110
f 112 118 83
f 118 84 83
f 118 119 84
f 84 119 85
f 119 120 85
f 85 120 86
f 74 121 113
f 74 86 121
f 86 120 121
f 113 122 114
f 121 122 113
f 114 123 115
f 122 123 114
f 115 87 78
f 115 123 87
f 123 124 87
f 124 125 87
f 87 125 88
f 125 126 88
f 88 126 89
f 126 127 89
f 89 127 90
f 127 128 90
f 90 128 91
f 128 82 91
f 117 82 128
f 93 129 130
f 92 129 93
f 129 92 131
f 92 94 131
f 131 94 132
f 94 95 132
f 132 95 133
f 95 96 133
f 133 96 134
f 96 97 134
f 134 97 135
f 97 98 135
f 135 98 136
f 98 99 136
f 136 99 137
f 99 100 137
f 137 100 138
f 100 101 138
f 138 101 139
f 101 102 139
f 139 102 140
f 102 103 140
f 140 103 141
f 103 104 141
f 104 142 141
f 105 142 104
f 130 143 93
f 143 106 93
f 142 105 108
f 144 142 108
f 108 145 144
f 109 145 108
f 111 147 146
f 111 106 147
f 106 143 147
f 111 146 112
f 150 149 148
f 149 152 151
f 148 149 151
f 152 153 151
f 117 155 154
f 116 117 154
f 154 109 116
f 145 109 154
f 147 156 146
f 146 118 112
f 146 156 118
f 156 157 118
f 157 158 118
f 118 158 119
f 158 159 119
f 119 159 120
f 159 160 120
f 120 160 121
f 160 161 121
f 121 161 122
f 148 161 150
f 148 123 161
f 123 122 161
f 151 123 148
f 124 123 151
f 153 124 151
f 153 162 124
f 162 125 124
f 162 163 125
f 125 163 126
f 163 164 126
f 126 164 127
f 164 165 127
f 127 165 128
f 165 117 128
f 155 117 165
f 129 166 130
f 166 167 168
f 166 129 167
f 129 131 167
f 167 131 169
f 131 132 169
f 169 132 170
f 132 133 170
f 170 133 171
f 133 134 171
f 171 134 172
f 134 135 172
f 172 135 173
f 135 136 173
f 173 136 174
f 136 137 174
f 174 137 175
f 137 138 175
f 175 138 176
f 138 139 176
f 176 139 177
f 139 140 177
f 177 140 178
f 140 141 178
f 179 141 142
f 179 180 141
f 180 178 141
f 180 179 181
f 182 130 166
f 182 183 130
f 183 143 130
f 166 168 182
f 179 142 144
f 144 181 179
f 144 145 181
f 145 184 181
f 185 183 186
f 185 147 183
f 147 143 183
f 186 187 185
f 150 189 188
f 149 150 188
f 188 190 149
f 149 190 152
f 191 153 152
f 191 152 192
f 192 152 190
f 192 193 191
f 155 195 194
f 154 155 194
f 194 145 154
f 184 145 194
f 185 156 147
f 187 156 185
f 187 196 156
f 196 157 156
f 196 197 157
f 157 197 158
f 197 198 158
f 158 198 159
f 198 199 159
f 159 199 160
f 199 200 160
f 160 200 161
f 200 150 161
f 189 150 200
f 191 162 153
f 193 162 191
f 193 201 162
f 201 163 162
f 201 202 163
f 163 202 164
f 202 203 164
f 164 203 165
f 203 155 165
f 195 155 203
f 168 204 205
f 167 204 168
f 204 167 206
f 167 169 206
f 206 169 207
f 169 170 207
f 207 170 208
f 170 171 208
f 208 171 209
f 171 172 209
f 209 172 210
f 172 173 210
f 210 173 211
f 173 174 211
f 211 174 212
f 174 175 212
f 212 175 213
f 175 176 213
f 213 176 214
f 176 177 214
f 214 177 215
f 177 178 215
f 215 178 216
f 178 180 216
f 180 217 216
f 181 217 180
f 182 218 183
f 218 182 168
f 218 168 219
f 219 168 205
f 217 181 220
f 220 181 184
f 218 186 183
f 186 218 219
f 186 219 187
f 187 219 221
f 189 223 222
f 188 189 222
f 222 224 188
f 188 224 190
f 224 225 190
f 190 225 192
f 192 225 226
f 193 192 226
f 195 228 227
f 194 195 227
f 227 184 194
f 220 184 227
f 221 196 187
f 229 196 221
f 229 230 196
f 196 230 197
f 230 231 197
f 197 231 198
f 231 232 198
f 198 232 199
f 232 233 199
f 199 233 200
f 233 189 200
f 223 189 233
f 226 201 193
f 234 201 226
f 234 235 201
f 201 235 202
f 235 236 202
f 202 236 203
f 236 195 203
f 228 195 236
f 205 237 238
f 204 237 205
f 237 204 239
f 204 206 239
f 239 206 240
f 206 207 240
f 240 207 241
f 207 208 241
f 241 208 242
f 208 209 242
f 242 209 243
f 209 210 243
f 243 210 244
f 210 211 244
f 244 211 245
f 211 212 245
f 245 212 246
f 212 213 246
f 246 213 247
f 213 214 247
f 247 214 248
f 214 215 248
f 248 215 249
f 215 216 249
f 216 250 249
f 217 250 216
f 238 251 205
f 251 219 205
f 250 217 252
f 252 217 220
f 251 253 219
f 253 221 219
f 256 255 254
f 223 254 255
f 223 255 222
f 222 255 257
f 257 258 222
f 222 258 224
f 258 259 224
f 224 259 225
f 260 226 225
f 260 225 261
f 261 225 259
f 261 262 260
f 228 264 263
f 227 228 263
f 263 220 227
f 252 220 263
f 253 229 221
f 265 229 253
f 265 266 229
f 229 266 230
f 266 267 230
f 230 267 231
f 267 268 231
f 231 268 232
f 254 268 256
f 254 233 268
f 233 232 268
f 254 223 233
f 260 234 226
f 262 234 260
f 262 269 234
f 269 235 234
f 269 270 235
f 235 270 236
f 270 228 236
f 264 228 270
f 238 271 272
f 237 271 238
f 271 237 273
f 237 239 273
f 273 239 274
f 239 240 274
f 274 240 275
f 240 241 275
f 275 241 276
f 241 242 276
f 276 242 277
f 242 243 277
f 277 243 278
f 243 244 278
f 278 244 279
f 244 245 279
f 279 245 280
f 245 246 280
f 280 246 281
f 246 247 281
f 281 247 282
f 247 248 282
f 282 248 283
f 248 249 283
f 249 284 283
f 250 284 249
f 272 285 238
f 285 251 238
f 284 250 286
f 286 250 252
f 285 287 251
f 287 253 251
f 256 289 288
f 255 256 288
f 288 290 255
f 255 290 257
f 290 291 257
f 257 291 258
f 291 292 258
f 258 292 259
f 292 293 259
f 259 293 261
f 261 293 294
f 262 261 294
f 264 296 295
f 263 264 295
f 295 252 263
f 286 252 295
f 287 265 253
f 297 265 287
f 297 298 265
f 265 298 266
f 298 299 266
f 266 299 267
f 299 300 267
f 267 300 268
f 300 256 268
f 289 256 300
f 294 269 262
f 301 269 294
f 301 302 269
f 269 302 270
f 302 264 270
f 296 264 302
f 272 303 304
f 271 303 272
f 303 271 305
f 271 273 305
f 305 273 306
f 273 274 306
f 306 274 307
f 274 275 307
f 307 275 308
f 275 276 308
f 308 276 309
f 276 277 309
f 309 277 310
f 277 278 310
f 310 278 311
f 278 279 311
f 311 279 312
f 279 280 312
f 312 280 313
f 280 281 313
f 313 281 314
f 281 282 314
f 314 282 315
f 282 283 315
f 283 316 315
f 284 316 283
f 304 317 272
f 317 285 272
f 316 284 318
f 318 284 286
f 321 319 320
f 320 319 287
f 320 287 317
f 317 287 285
f 324 323 322
f 289 322 323
f 289 323 288
f 288 323 325
f 325 326 288
f 288 326 290
f 326 327 290
f 290 327 291
f 327 328 291
f 291 328 292
f 330 329 293
f 330 293 328
f 328 293 292
f 293 329 294
f 295 296 331
f 331 286 295
f 331 332 286
f 332 318 286
f 321 333 319
f 319 297 287
f 319 333 297
f 333 334 297
f 334 335 297
f 297 335 298
f 335 336 298
f 298 336 299
f 322 336 324
f 322 300 336
f 300 299 336
f 322 289 300
f 330 337 329
f 329 301 294
f 329 337 301
f 337 338 301
f 338 339 301
f 301 339 302
f 296 340 331
f 296 302 340
f 302 339 340
f 331 340 332
f 304 341 342
f 303 341 304
f 341 303 343
f 303 305 343
f 343 305 344
f 305 306 344
f 344 306 345
f 306 307 345
f 345 307 346
f 307 308 346
f 346 308 347
f 308 309 347
f 347 309 348
f 309 310 348
f 348 310 349
f 310 311 349
f 349 311 350
f 311 312 350
f 350 312 351
f 312 313 351
f 351 313 352
f 313 314 352
f 352 314 353
f 314 315 353
f 315 354 353
f 316 354 315
f 357 355 356
f 356 355 317
f 356 317 342
f 342 317 304
f 354 316 358
f 358 316 318
f 355 321 320
f 355 357 321
f 357 359 321
f 355 320 317
f 324 361 360
f 323 324 360
f 360 362 323
f 323 362 325
f 362 363 325
f 325 363 326
f 363 364 326
f 326 364 327
f 364 365 327
f 327 365 328
f 366 330 328
f 366 328 367
f 367 328 365
f 367 368 366
f 358 318 369
f 369 318 332
f 359 333 321
f 370 333 359
f 370 371 333
f 333 371 334
f 371 372 334
f 334 372 335
f 372 373 335
f 335 373 336
f 373 324 336
f 361 324 373
f 366 337 330
f 368 337 366
f 368 374 337
f 374 338 337
f 374 375 338
f 338 375 339
f 375 376 339
f 339 376 340
f 376 332 340
f 369 332 376
f 342 377 378
f 341 377 342
f 377 341 379
f 341 343 379
f 379 343 380
f 343 344 380
f 380 344 381
f 344 345 381
f 381 345 382
f 345 346 382
f 382 346 383
f 346 347 383
f 383 347 384
f 347 348 384
f 386 349 385
f 386 384 349
f 384 348 349
f 385 387 388
f 385 349 387
f 349 350 387
f 387 350 389
f 350 351 389
f 389 351 390
f 351 352 390
f 390 352 391
f 352 353 391
f 353 392 391
f 354 392 353
f 357 393 394
f 356 393 357
f 393 356 342
f 378 393 342
f 386 385 395
f 385 388 395
f 392 354 396
f 396 354 358
f 394 397 357
f 397 359 357
f 400 399 398
f 399 402 401
f 398 399 401
f 361 401 402
f 361 402 360
f 360 402 403
f 403 404 360
f 360 404 362
f 404 405 362
f 362 405 363
f 405 406 363
f 363 406 364
f 406 407 364
f 364 407 365
f 407 408 365
f 365 408 367
f 409 368 367
f 409 367 410
f 410 367 408
f 410 411 409
f 414 413 412
f 413 369 412
f 413 396 369
f 396 358 369
f 397 370 359
f 415 370 397
f 415 416 370
f 370 416 371
f 398 416 400
f 398 372 416
f 372 371 416
f 401 372 398
f 373 372 401
f 401 361 373
f 409 374 368
f 411 374 409
f 411 417 374
f 417 375 374
f 412 417 414
f 412 376 417
f 376 375 417
f 412 369 376
f 378 418 419
f 377 418 378
f 418 377 420
f 377 379 420
f 420 379 421
f 379 380 421
f 421 380 422
f 380 381 422
f 422 381 423
f 381 382 423
f 423 382 424
f 382 383 424
f 426 384 425
f 426 424 384
f 424 383 384
f 384 386 425
f 387 427 388
f 427 428 429
f 427 387 428
f 387 389 428
f 428 389 430
f 389 390 430
f 430 390 431
f 390 391 431
f 391 432 431
f 392 432 391
f 394 433 434
f 393 433 394
f 433 393 378
f 419 433 378
f 437 436 435
f 438 439 435
f 438 435 425
f 436 426 435
f 426 425 435
f 425 386 395
f 425 395 438
f 438 395 440
f 388 427 441
f 388 441 395
f 395 441 440
f 427 429 441
f 432 392 442
f 442 392 396
f 434 443 394
f 443 397 394
f 400 445 444
f 399 400 444
f 444 446 399
f 399 446 402
f 446 447 402
f 402 447 403
f 447 448 403
f 403 448 404
f 435 448 437
f 435 405 448
f 405 404 448
f 439 405 435
f 439 449 405
f 449 406 405
f 449 450 406
f 406 450 407
f 450 451 407
f 407 451 408
f 451 452 408
f 408 452 410
f 410 452 453
f 411 410 453
f 414 455 454
f 413 414 454
f 454 396 413
f 442 396 454
f 443 415 397
f 456 415 443
f 456 457 415
f 415 457 416
f 457 400 416
f 445 400 457
f 453 417 411
f 458 417 453
f 458 414 417
f 455 414 458
f 419 459 460
f 418 459 419
f 459 418 461
f 418 420 461
f 461 420 462
f 420 421 462
f 462 421 463
f 421 422 463
f 463 422 464
f 422 423 464
f 464 423 465
f 423 424 465
f 466 424 426
f 466 467 424
f 467 465 424
f 467 468 469
f 466 468 467
f 469 470 471
f 468 470 469
f 429 471 470
f 429 428 471
f 428 472 471
f 472 428 473
f 428 430 473
f 473 430 474
f 430 431 474
f 431 475 474
f 432 475 431
f 434 476 477
f 433 476 434
f 476 433 419
f 460 476 419
f 436 437 478
f 439 438 466
f 439 466 478
f 426 436 466
f 436 478 466
f 468 466 438
f 440 468 438
f 470 468 440
f 441 470 440
f 470 441 429
f 475 432 479
f 479 432 442
f 477 480 434
f 480 443 434
f 444 445 481
f 481 483 482
f 481 482 444
f 444 482 446
f 482 484 446
f 446 484 447
f 484 485 447
f 447 485 448
f 437 486 478
f 437 448 486
f 448 485 486
f 478 449 439
f 478 486 449
f 486 487 449
f 487 488 449
f 449 488 450
f 488 489 450
f 450 489 451
f 489 490 451
f 451 490 452
f 452 490 491
f 453 452 491
f 455 493 492
f 454 455 492
f 492 442 454
f 479 442 492
f 480 456 443
f 494 456 480
f 494 495 456
f 456 495 457
f 445 496 481
f 445 457 496
f 457 495 496
f 481 496 483
f 491 458 453
f 497 458 491
f 497 455 458
f 493 455 497
f 460 498 499
f 459 498 460
f 498 459 500
f 459 461 500
f 500 461 501
f 461 462 501
f 501 462 502
f 462 463 502
f 502 463 503
f 463 464 503
f 503 464 504
f 464 465 504
f 504 465 505
f 465 467 505
f 505 467 506
f 467 469 506
f 506 469 507
f 469 471 507
f 507 471 508
f 471 472 508
f 508 472 509
f 472 473 509
f 509 473 510
f 473 474 510
f 474 511 510
f 475 511 474
f 477 512 513
f 476 512 477
f 512 476 460
f 499 512 460
f 511 475 514
f 514 475 479
f 513 515 477
f 515 480 477
f 483 517 516
f 482 483 516
f 516 518 482
f 482 518 484
f 518 519 484
f 484 519 485
f 519 520 485
f 485 520 486
f 520 521 486
f 486 521 487
f 521 522 487
f 487 522 488
f 522 523 488
f 488 523 489
f 523 524 489
f 489 524 490
f 490 524 525
f 491 490 525
f 492 493 526
f 526 479 492
f 526 527 479
f 527 514 479
f 515 494 480
f 528 494 515
f 528 529 494
f 494 529 495
f 529 530 495
f 495 530 496
f 530 483 496
f 517 483 530
f 525 497 491
f 531 497 525
f 493 532 526
f 493 497 532
f 497 531 532
f 526 532 527
f 535 533 534
f 534 536 537
f 533 536 534
f 537 536 538
f 535 539 533
f 533 540 536
f 539 540 533
f 536 540 538
f 543 541 542
f 542 541 544
f 547 545 546
f 541 499 498
f 543 499 541
f 543 545 499
f 543 546 545
f 544 541 498
f 544 498 548
f 548 498 500
f 548 500 549
f 500 501 549
f 549 501 550
f 501 502 550
f 552 503 551
f 552 550 503
f 550 502 503
f 551 553 554
f 551 503 553
f 503 504 553
f 553 504 555
f 504 505 555
f 555 505 556
f 505 506 556
f 556 506 557
f 506 507 557
f 557 507 558
f 507 508 558
f 558 508 559
f 508 509 559
f 561 510 560
f 561 559 510
f 559 509 510
f 510 511 560
f 545 513 512
f 545 547 513
f 547 562 513
f 545 512 499
f 552 551 563
f 551 554 563
f 561 560 564
f 560 565 564
f 560 511 565
f 511 514 565
f 562 566 513
f 566 515 513
f 516 517 567
f 567 569 568
f 567 568 516
f 516 568 518
f 568 570 518
f 518 570 519
f 570 571 519
f 519 571 520
f 571 572 520
f 520 572 521
f 572 573 521
f 521 573 522
f 573 574 522
f 522 574 523
f 574 575 523
f 523 575 524
f 524 575 576
f 525 524 576
f 565 514 577
f 577 514 527
f 566 528 515
f 578 528 566
f 578 579 528
f 528 579 529
f 579 580 529
f 529 580 530
f 517 581 567
f 517 530 581
f 530 580 581
f 567 581 569
f 576 531 525
f 582 531 576
f 582 583 531
f 531 583 532
f 583 527 532
f 577 527 583
f 535 584 585
f 534 584 535
f 587 537 586
f 587 584 537
f 584 534 537
f 537 538 586
f 539 589 588
f 539 535 589
f 535 585 589
f 588 590 587
f 588 587 540
f 588 540 539
f 540 587 586
f 586 538 540
f 589 591 588
f 588 591 590
f 543 592 593
f 542 592 543
f 542 594 592
f 544 594 542
f 547 595 596
f 546 595 547
f 595 546 543
f 593 595 543
f 594 544 548
f 597 594 548
f 597 548 598
f 548 549 598
f 598 549 599
f 549 550 599
f 550 600 599
f 552 600 550
f 554 601 602
f 553 601 554
f 604 555 603
f 604 601 555
f 601 553 555
f 603 605 606
f 603 555 605
f 555 556 605
f 605 556 607
f 556 557 607
f 607 557 608
f 557 558 608
f 608 558 609
f 558 559 609
f 559 610 609
f 561 610 559
f 596 611 547
f 611 562 547
f 600 552 563
f 612 600 563
f 612 563 554
f 602 612 554
f 604 603 613
f 603 606 613
f 610 561 564
f 614 610 564
f 564 615 614
f 565 615 564
f 611 616 562
f 616 566 562
f 569 618 617
f 568 569 617
f 617 619 568
f 568 619 570
f 619 620 570
f 570 620 571
f 620 621 571
f 571 621 572
f 621 622 572
f 572 622 573
f 624 623 574
f 624 574 622
f 622 574 573
f 575 574 623
f 625 575 623
f 575 625 576
f 615 565 626
f 626 565 577
f 616 578 566
f 627 578 616
f 627 628 578
f 578 628 579
f 628 629 579
f 579 629 580
f 629 630 580
f 580 630 581
f 630 569 581
f 618 569 630
f 633 631 632
f 632 631 635
f 624 634 623
f 623 636 625
f 634 636 623
f 625 582 576
f 625 636 582
f 636 637 582
f 637 638 582
f 582 638 583
f 638 577 583
f 626 577 638
f 633 639 631
f 631 639 635
f 584 640 585
f 584 587 640
f 641 585 640
f 589 585 641
f 640 590 641
f 587 590 640
f 641 591 589
f 641 590 591
f 592 642 593
f 592 594 642
f 596 643 644
f 595 643 596
f 593 642 645
f 593 645 595
f 595 645 643
f 642 594 597
f 642 597 645
f 645 597 646
f 646 597 647
f 597 598 647
f 649 599 648
f 649 647 599
f 647 598 599
f 599 600 648
f 601 650 602
f 601 604 650
f 606 651 652
f 605 651 606
f 651 605 653
f 605 607 653
f 653 607 654
f 607 608 654
f 654 608 655
f 608 609 655
f 609 656 655
f 610 656 609
f 644 657 596
f 657 611 596
f 649 648 658
f 648 600 612
f 648 612 658
f 658 612 659
f 602 659 612
f 602 660 659
f 602 650 660
f 660 661 659
f 604 660 650
f 604 662 660
f 604 613 662
f 663 660 662
f 662 613 606
f 652 662 606
f 656 610 614
f 664 656 614
f 614 665 664
f 615 665 614
f 657 666 611
f 666 616 611
f 617 618 667
f 667 669 668
f 667 668 617
f 617 668 619
f 660 668 661
f 660 620 668
f 620 619 668
f 663 620 660
f 663 670 620
f 670 621 620
f 672 671 622
f 672 622 670
f 670 622 621
f 673 624 622
f 673 622 674
f 671 675 622
f 675 674 622
f 674 677 676
f 673 674 676
f 677 678 676
f 665 615 679
f 679 615 626
f 666 627 616
f 680 627 666
f 680 681 627
f 627 681 628
f 681 682 628
f 628 682 629
f 682 683 629
f 629 683 630
f 618 684 667
f 618 630 684
f 630 683 684
f 669 667 684
f 686 687 685
f 686 688 689
f 685 688 686
f 689 690 691
f 688 690 689
f 671 633 632
f 672 633 671
f 672 690 633
f 672 691 690
f 671 693 675
f 671 692 693
f 671 632 692
f 635 692 632
f 624 673 634
f 634 676 636
f 634 673 676
f 693 692 694
f 678 636 676
f 678 695 636
f 695 637 636
f 695 696 637
f 637 696 638
f 696 626 638
f 679 626 696
f 687 697 685
f 685 698 688
f 697 698 685
f 688 699 690
f 698 699 688
f 690 639 633
f 690 699 639
f 699 700 639
f 635 701 692
f 635 639 701
f 639 700 701
f 692 701 694
f 644 702 703
f 643 702 644
f 702 643 704
f 643 645 704
f 704 645 705
f 645 646 705
f 705 646 706
f 646 647 706
f 647 707 706
f 649 707 647
f 652 708 709
f 651 708 652
f 708 651 710
f 651 653 710
f 710 653 711
f 653 654 711
f 711 654 712
f 654 655 712
f 713 655 656
f 713 714 655
f 714 712 655
f 714 713 715
f 703 716 644
f 716 657 644
f 707 649 658
f 717 707 658
f 717 658 718
f 658 659 718
f 719 659 661
f 719 720 659
f 720 718 659
f 663 720 719
f 663 662 720
f 662 721 720
f 721 662 652
f 709 721 652
f 713 656 664
f 664 715 713
f 664 665 715
f 665 722 715
f 716 723 657
f 723 666 657
f 668 669 724
f 724 726 725
f 668 724 725
f 668 725 719
f 668 719 661
f 728 727 670
f 725 728 670
f 725 670 663
f 725 663 719
f 670 727 672
f 674 675 729
f 677 674 729
f 730 677 729
f 677 730 678
f 722 665 731
f 731 665 679
f 723 680 666
f 732 680 723
f 732 733 680
f 680 733 681
f 733 734 681
f 681 734 682
f 734 735 682
f 682 735 683
f 735 736 683
f 683 736 684
f 687 686 737
f 669 684 724
f 684 738 724
f 684 736 738
f 737 689 739
f 737 686 689
f 724 738 726
f 691 739 689
f 691 740 739
f 741 727 728
f 741 743 672
f 741 672 727
f 743 742 672
f 691 672 740
f 742 740 672
f 743 744 742
f 675 693 729
f 693 694 745
f 693 745 729
f 729 745 730
f 695 678 730
f 695 730 746
f 746 730 745
f 696 695 746
f 747 696 746
f 747 679 696
f 747 748 679
f 748 731 679
f 737 697 687
f 739 697 737
f 698 697 739
f 740 698 739
f 699 698 740
f 742 699 740
f 700 699 742
f 744 700 742
f 744 749 700
f 749 701 700
f 694 750 745
f 694 701 750
f 701 749 750
f 745 751 746
f 750 751 745
f 746 752 747
f 751 752 746
f 747 752 748
f 703 753 754
f 702 753 703
f 753 702 755
f 702 704 755
f 755 704 756
f 704 705 756
f 756 705 757
f 705 706 757
f 758 706 707
f 758 759 706
f 759 757 706
f 759 760 761
f 758 760 759
f 761 762 763
f 760 762 761
f 763 764 765
f 762 764 763
f 709 765 764
f 709 708 765
f 708 766 765
f 766 708 767
f 708 710 767
f 767 710 768
f 710 711 768
f 768 711 769
f 711 712 769
f 769 712 770
f 712 714 770
f 714 771 770
f 715 771 714
f 754 772 703
f 772 716 703
f 758 707 717
f 760 758 717
f 718 760 717
f 762 760 718
f 720 762 718
f 764 762 720
f 721 764 720
f 764 721 709
f 771 715 773
f 773 715 722
f 772 774 716
f 774 723 716
f 725 726 775
f 725 775 728
f 773 722 776
f 776 722 731
f 774 732 723
f 777 732 774
f 777 778 732
f 732 778 733
f 778 779 733
f 733 779 734
f 779 780 734
f 734 780 735
f 780 781 735
f 735 781 736
f 781 782 736
f 736 782 738
f 726 783 775
f 726 738 783
f 738 782 783
f 775 741 728
f 775 783 741
f 783 784 741
f 784 785 741
f 741 785 743
f 743 785 786
f 744 743 786
f 776 731 787
f 787 731 748
f 786 749 744
f 788 749 786
f 788 789 749
f 749 789 750
f 789 790 750
f 750 790 751
f 790 791 751
f 751 791 752
f 791 748 752
f 787 748 791
f 753 792 754
f 792 793 794
f 792 753 793
f 753 755 793
f 793 755 795
f 755 756 795
f 797 757 796
f 797 795 757
f 795 756 757
f 759 796 757
f 798 796 759
f 761 798 759
f 799 798 761
f 763 799 761
f 800 799 763
f 765 800 763
f 801 800 765
f 766 801 765
f 802 801 766
f 767 802 766
f 803 802 767
f 768 803 767
f 804 803 768
f 769 804 768
f 805 804 769
f 770 805 769
f 806 805 770
f 770 771 806
f 807 754 792
f 807 808 754
f 808 772 754
f 792 794 807
f 797 796 809
f 796 798 810
f 809 796 810
f 812 810 798
f 812 798 811
f 811 798 799
f 799 800 811
f 800 813 811
f 800 801 813
f 801 814 813
f 801 802 814
f 802 815 814
f 802 803 815
f 803 816 815
f 803 804 816
f 804 817 816
f 804 805 817
f 805 818 817
f 805 806 818
f 806 819 818
f 806 773 819
f 771 773 806
f 820 808 821
f 820 774 808
f 774 772 808
f 821 823 822
f 820 821 822
f 823 825 824
f 822 823 824
f 825 827 826
f 824 825 826
f 827 829 828
f 826 827 828
f 829 812 811
f 829 811 828
f 828 811 830
f 811 813 830
f 813 831 830
f 813 814 831
f 814 832 831
f 814 815 832
f 815 833 832
f 815 816 833
f 816 834 833
f 816 817 834
f 817 835 834
f 817 818 835
f 818 836 835
f 818 819 836
f 819 837 836
f 819 776 837
f 773 776 819
f 820 777 774
f 822 777 820
f 778 777 822
f 824 778 822
f 779 778 824
f 826 779 824
f 780 779 826
f 828 780 826
f 781 780 828
f 830 781 828
f 782 781 830
f 831 782 830
f 783 782 831
f 832 783 831
f 784 783 832
f 833 784 832
f 785 784 833
f 785 838 786
f 785 833 838
f 833 834 838
f 834 835 838
f 835 839 838
f 835 836 839
f 836 840 839
f 836 837 840
f 837 841 840
f 837 787 841
f 776 787 837
f 838 788 786
f 839 788 838
f 789 788 839
f 840 789 839
f 790 789 840
f 841 790 840
f 791 790 841
f 841 787 791
f 793 842 794
f 795 842 793
f 843 842 795
f 795 797 843
f 807 844 808
f 794 844 807
f 794 842 844
f 842 845 844
f 842 843 845
f 843 846 845
f 809 843 797
f 809 847 843
f 847 846 843
f 810 847 809
f 848 847 810
f 810 812 848
f 844 821 808
f 845 821 844
f 823 821 845
f 846 823 845
f 825 823 846
f 847 825 846
f 827 825 847
f 848 827 847
f 829 827 848
f 848 812 829
